<svg xmlns="http://www.w3.org/2000/svg" xmlns:xlink="http://www.w3.org/1999/xlink" viewBox="0 0 2268.51 2664.25"><defs><style>.cls-1,.cls-3{fill:#a4ecff;}.cls-1,.cls-5,.cls-6,.cls-7,.cls-8{stroke:#00260c;stroke-width:0.5px;}.cls-1,.cls-11,.cls-5,.cls-6,.cls-7,.cls-8{stroke-miterlimit:10;}.cls-2{fill:#fff;}.cls-4{clip-path:url(#clip-path);}.cls-5{fill:#7fcbd3;}.cls-6{fill:#5badba;}.cls-7{fill:#408ea0;}.cls-11,.cls-8{fill:none;}.cls-9{fill:#c18f46;}.cls-10{fill:#74ed6e;}.cls-11{stroke:#000;stroke-width:7px;}</style><clipPath id="clip-path"><rect id="_Rectangle_" data-name="&lt;Rectangle&gt;" class="cls-1" x="62.75" y="0.25" width="2127.5" height="2501"/></clipPath></defs><title>background</title><g id="Layer_2" data-name="Layer 2"><g id="Layer_3" data-name="Layer 3"><rect class="cls-2" x="62.75" y="0.25" width="2127" height="2664"/><rect id="_Rectangle_2" data-name="&lt;Rectangle&gt;" class="cls-3" x="62.75" y="0.25" width="2127.5" height="2501"/><g class="cls-4"><polygon class="cls-5" points="2238.26 1767.75 1920.26 1929.75 1358.26 1749.75 780.25 1895.75 471.25 1803.75 324.25 1877.75 16.25 1749.75 0.26 2580.75 2268.26 2535.75 2238.26 1767.75"/><polygon class="cls-6" points="2228.26 2349.75 1622.26 1991.75 1344.26 2161.75 1232.26 2046.75 907.25 2289.75 433.25 1965.75 182.25 2155.75 16.25 2115.75 12.26 2591.75 2220.26 2549.75 2228.26 2349.75"/><polygon class="cls-7" points="2229.26 2422.75 1782.26 2198.75 1378.26 2399.75 1165.26 2282.75 1023.25 2389.75 765.25 2317.75 655.25 2207.75 458.25 2365.75 274.25 2276.75 22.25 2474.75 6.25 2518.75 2232.26 2496.75 2229.26 2422.75"/></g><rect id="_Rectangle_3" data-name="&lt;Rectangle&gt;" class="cls-8" x="62.75" y="0.25" width="2127.5" height="2501"/><rect class="cls-9" x="62.75" y="2497.25" width="2127" height="167"/><rect class="cls-10" x="62.75" y="2501.25" width="2127" height="35"/><line class="cls-11" x1="2189.75" y1="2497.25" x2="62.75" y2="2497.25"/></g></g></svg>