<svg xmlns="http://www.w3.org/2000/svg" viewBox="0 0 368.16 268.52"><defs><style>.cls-1,.cls-2{fill:#725af8;}.cls-1,.cls-14,.cls-4,.cls-5,.cls-7,.cls-9{opacity:1;}.cls-10,.cls-11,.cls-12,.cls-13,.cls-15,.cls-16,.cls-17,.cls-2,.cls-3,.cls-6,.cls-8{opacity:1;}.cls-3,.cls-4{fill:#9683ff;}.cls-5{fill:#f8f8f4;}.cls-6,.cls-7{fill:#ebe57a;}.cls-8,.cls-9{fill:#6f61bd;}.cls-10{fill:#4c3da2;}.cls-11{fill:#beb864;}.cls-12{fill:#101f21;}.cls-13{fill:#e8e8e4;}.cls-14{fill:#fbfbaa;}.cls-15{fill:#8e8aff;}.cls-16{fill:#899091;}.cls-17{fill:#091212;}</style></defs><title>bird</title><g id="Layer_2" data-name="Layer 2"><g id="bird"><path class="cls-1" d="M310.38,64.39A2.53,2.53,0,0,0,308.93,63h0a3.62,3.62,0,0,0,.22-.73,3.53,3.53,0,0,0-.56-2.37,16.72,16.72,0,0,0-1-1.61c-.47-.69-1-1.36-1.41-2.06-.86-1.33-1.72-2.66-2.53-4,.13.22.26.44.4.66a23.88,23.88,0,0,0-1.72-2.64c-.45-.59-1-1.15-1.45-1.71-1.06-1.19-2.12-2.37-3.23-3.49-1.35-1.37-2.79-2.64-4.2-3.94a44.27,44.27,0,0,0-3.88-3.23c-1.32-1-2.59-2-4-2.86s-2.92-1.82-4.37-2.75-2.66-1.92-4-2.86c-.69-.48-1.36-1-2.09-1.38l-2.79-1.56c-.43-.23-.86-.46-1.28-.7-1.28-.72-2.56-1.44-3.81-2.19-1.64-1-3.29-2-5-2.9-1.51-.84-3-1.69-4.54-2.48S254.58,16.64,253,16c-3.22-1.31-6.56-2.34-9.9-3.33s-6.89-2.08-10.37-3-7.25-1.78-10.92-2.44c-3.45-.62-6.93-1.14-10.42-1.44-3.11-.26-6.23-.42-9.35-.54-1.5-.06-3-.07-4.51-.08H194c-3.49,0-7,.12-10.45.27-2.44.1-4.87.23-7.3.42l-1.46,0c-1.94,0-3.86.16-5.79.38s-3.75.51-5.62.81c-3.68.6-7.33,1.38-11,2.24l-1.71.43a2.52,2.52,0,0,0-.54.14c-3.1.82-6.17,1.77-9.18,2.84-1.74.62-3.46,1.28-5.19,1.91s-3.32,1.26-4.94,1.95-3.43,1.57-5.12,2.41-3.38,1.65-5.07,2.48-3.42,1.66-5.12,2.53c-1.92,1-3.79,2.06-5.62,3.21-3.2,2-6.29,4.14-9.29,6.41S94.77,38.23,92,40.7s-5.34,5-8,7.51a96.24,96.24,0,0,0-7.86,8.17c0-.07,0-.13,0-.2l-.11-.57A6.1,6.1,0,0,0,75.35,54c-.4-.74-.83-1.46-1.24-2.19-.89-1.56-1.78-3.12-2.73-4.64-1.73-2.78-3.61-5.47-5.53-8.11a34.13,34.13,0,0,0-7-7.51,20.28,20.28,0,0,0-1.92-1.24,12.16,12.16,0,0,0-1.53-.77A8,8,0,0,0,53.23,29a3.87,3.87,0,0,0-1.27.08,3.82,3.82,0,0,0-1.57.69A4.74,4.74,0,0,0,49,31.61,8.83,8.83,0,0,0,48.65,33c0,.2-.09.41-.12.61-.12.73-.26,1.45-.34,2.18s-.08,1.23-.11,1.85a9.6,9.6,0,0,1-.15,1.2,29.13,29.13,0,0,1-3.52-2.86c-1.15-1-2.25-2.13-3.41-3.17-2.4-2.17-4.78-4.38-7.25-6.47-1.22-1-2.48-2-3.75-3l-3.87-2.94c-1.28-1-2.58-1.88-3.93-2.74A26.55,26.55,0,0,0,17.36,15a15.51,15.51,0,0,0-2.84-.78,10.2,10.2,0,0,0-1.83-.15c-.37,0-.72,0-1.09,0a5.17,5.17,0,0,0-1,.18,11.84,11.84,0,0,0-1.94.62,6.85,6.85,0,0,0-1.92,1.32,7.71,7.71,0,0,0-1,1.15A9.35,9.35,0,0,0,5,18.7a8.9,8.9,0,0,0-.41,1.36,5.75,5.75,0,0,0-.08,1.55,7.47,7.47,0,0,0,.44,2c.22.73.5,1.44.76,2.16a11.37,11.37,0,0,0,1.32,2.48A13.44,13.44,0,0,0,9,30.33c1.12,1.07,2.36,2,3.57,2.94s2.43,2,3.7,3,2.69,1.9,4.08,2.79,2.51,1.65,3.76,2.48c2.08,1.36,4.25,2.57,6.37,3.86,1.06.64,2.15,1.25,3.15,2a32.71,32.71,0,0,1,2.77,2.21,13.32,13.32,0,0,1,1.43,1.75,3.39,3.39,0,0,1,.18.39l-.17.13a8.09,8.09,0,0,1-1.27.48c-1.42.34-2.86.51-4.29.83a12,12,0,0,0-2.78.89A13.37,13.37,0,0,0,28,54.9a4.61,4.61,0,0,0-1.14,1.15A4.33,4.33,0,0,0,26,58.24a5,5,0,0,0,1,3.14,6.56,6.56,0,0,0,.75.92,13.68,13.68,0,0,0,1.13,1c.31.26.65.49,1,.72a27.18,27.18,0,0,0,4.36,2.41,45.62,45.62,0,0,0,4.39,1.68c1.61.55,3.24,1,4.88,1.41,2.21.56,4.46,1,6.69,1.41.44.18.89.34,1.34.51l2.21.81c2.52.91,5,1.88,7.47,3a87.54,87.54,0,0,0-5.17,9.16c-.84,1.65-1.72,3.28-2.52,4.94S51.85,92.8,51,94.52c-1.63,3.28-3.44,6.48-4.88,9.84-.75,1.73-1.46,3.47-2.08,5.25s-1.18,3.65-1.85,5.45c-.35,1-.75,1.91-1.17,2.85a3.19,3.19,0,0,0-.31-.33.72.72,0,0,0-.47-.29h-.08a1.27,1.27,0,0,0-.66.46,4.94,4.94,0,0,0-.55.66,10.43,10.43,0,0,0-.62,1.08c-.14.25-.26.53-.38.8a16.51,16.51,0,0,0-.68,1.94c-.23.85-.43,1.7-.65,2.55l.18-.66c-.37,1.39-.71,2.79-1,4.19-.23.77-.49,1.54-.73,2.31s-.53,1.76-.78,2.64-.5,1.7-.77,2.55c-.15.45-.28.91-.45,1.35a8.68,8.68,0,0,1-.45,1,12,12,0,0,1-.77,1.18c-.15,0-.3,0-.45,0a5.11,5.11,0,0,0-.87.15c-.77.2-1.52.42-2.27.68-.58.21-1.16.45-1.73.69s-1.13.49-1.67.78c-1.22.65-2.38,1.39-3.55,2.12-1,.61-1.91,1.25-2.88,1.85a37,37,0,0,1-4.15,2c-.73.3-1.47.54-2.21.82a3.67,3.67,0,0,0-1.76,1.2A3,3,0,0,0,9.67,151a3.08,3.08,0,0,0,.2,1.5,5.29,5.29,0,0,0,2.56,2.31c1.5.83,3.06,1.55,4.6,2.31s3.07,1.39,4.62,2c1.36.58,2.75,1.09,4.05,1.76a11.79,11.79,0,0,1,1.6,1.21c.31.32.62.65.91,1a2.82,2.82,0,0,0-.83.75l0,.07a2.73,2.73,0,0,0-.54,1.33,2.14,2.14,0,0,0-.07.43c0,.19,0,.38,0,.57,0,.64,0,1.29,0,1.93a14.33,14.33,0,0,0,.25,2.45,21.16,21.16,0,0,0,1.77,5.48,42.6,42.6,0,0,0,3,5.06c1,1.48,2,2.91,3.06,4.29.51.65,1,1.3,1.61,1.91.77.86,1.58,1.66,2.41,2.44a23.12,23.12,0,0,0,1.94,1.62c.3.23.61.44.93.64a9.56,9.56,0,0,0,2,1,4,4,0,0,0,2.11.15c0-.1,0-.2,0-.3h0a2.4,2.4,0,0,1,0-.28A3.84,3.84,0,0,1,46,192a2.75,2.75,0,0,1,.8-1.07,3,3,0,0,1,1.07-.52l.25-.29c.28-.3.56-.62.86-.9.46-.43.91-.85,1.39-1.25,1.11-.91,2.24-1.78,3.4-2.63,2.13-1.56,4.27-3.13,6.43-4.65,2.39-1.67,4.81-3.28,7.26-4.86,2.19-1.43,4.45-2.77,6.71-4.1h0l.33-.19.19-.12.68-.4c2.27-1.36,4.5-2.78,6.74-4.19,2.4-1.53,4.83-3,7.36-4.36s4.92-2.55,7.46-3.66,5.32-2.24,8-3.2,5.26-1.73,7.91-2.55,5-1.55,7.55-2.36,5.09-1.64,7.64-2.44,4.88-1.57,7.32-2.37c2.62-.86,5.26-1.69,7.91-2.47,1.55-.45,3.1-.88,4.65-1.3,1.37-.36,2.76-.66,4.14-.95,2.84-.61,5.69-1.11,8.54-1.61s5.63-.94,8.45-1.34,5.58-.68,8.37-.94,5.61-.37,8.41-.48c1,0,1.93-.06,2.9-.06.65,0,1.31,0,2,0,1.4.06,2.8.14,4.21.24,2.75.19,5.5.44,8.25.77s5.28.68,7.91,1.11c1.23.21,2.46.45,3.7.65s2.56.42,3.85.62c2.57.4,5.15.77,7.71,1.26s5.09,1.11,7.63,1.71c2.79.66,5.59,1.31,8.35,2.08,1.28.35,2.57.69,3.86,1.06s2.6.71,3.87,1.13c2.48.82,4.93,1.78,7.4,2.62,1.2.41,2.39.83,3.57,1.27s2.55,1,3.82,1.49,2.47,1,3.7,1.51c.95.39,1.9.74,2.85,1.11h0l.85.35c1.24.52,2.47,1,3.69,1.61s2.17,1.08,3.24,1.65a12.12,12.12,0,0,1,3.68,2.48,4,4,0,0,1,.85,1.64,2.21,2.21,0,0,0,.6-.62,7.89,7.89,0,0,0,.44-.87c.08-.1.16-.21.25-.31a16.79,16.79,0,0,0,1.12-1.26,4.48,4.48,0,0,0,.75-1.35,2.16,2.16,0,0,0,.17-.75,3.22,3.22,0,0,0-.22-1.41,2.74,2.74,0,0,0-1.25-1.37,7.41,7.41,0,0,0-1.55-.69c-.47-.13-.94-.25-1.42-.36l-1.45-.32c-1-.3-2-.68-3-1.06s-1.8-.7-2.66-1.14-1.44-1-2.14-1.45-1.48-1-2.22-1.51a32.12,32.12,0,0,1-3.88-3c-.4-.42-.79-.86-1.15-1.32s-.76-1-1.18-1.45c-.93-1-1.92-2-2.82-3.09a28.89,28.89,0,0,1-2.23-3.15c-.65-1-1.31-2-1.93-3a18.89,18.89,0,0,1-1.42-3.06c-.35-1-.65-1.92-.94-2.89a33.8,33.8,0,0,1-.94-4.77c-.11-.93-.23-1.86-.3-2.79-.06-.68-.08-1.38-.08-2.07,0-1.12,0-2.23,0-3.35,0-.78,0-1.56-.06-2.34a32.7,32.7,0,0,1,.42-5.14q.47-2.64,1.1-5.24c.23-.9.47-1.8.7-2.71.41-1.49.88-3,1.3-4.45s.79-3,1.24-4.4.92-2.75,1.41-4.12a30.92,30.92,0,0,1,1.61-3.8,24,24,0,0,1,1.62-2.27,20.46,20.46,0,0,1,1.47-1.62,39.15,39.15,0,0,1,3.34-3,26.41,26.41,0,0,1,3-2,73.7,73.7,0,0,1,7.57-3.72,61.44,61.44,0,0,1,7.48-2.64,38.8,38.8,0,0,1,8.87-1.54,21.74,21.74,0,0,1,4.4.5c1.39.4,2.76.87,4.17,1.23.62.16,1.24.29,1.87.39a12.57,12.57,0,0,0,1.72.19,2.58,2.58,0,0,0,1.37-.19,2.65,2.65,0,0,0,1.41-3.48Zm-280-5.71s0,0,0,0,0,.09,0,.12ZM52.74,34.56h0ZM18.17,151.75h0l0,0ZM47.61,189s0,0,0,0h0l.21-.26ZM75,57.06l.23.3h0Zm155.7-41.85-.11,0,.2.06ZM263,148.34h0l-.17-.19Zm39.6-87.09-.09-.13a.71.71,0,0,1,.1.14Z"/><path class="cls-2" d="M317.38,8.46c-3.84.35-7.28,2.15-10.52,4.1a33.56,33.56,0,0,0-4.23,3.17,35.58,35.58,0,0,0-4.07,4,48.32,48.32,0,0,0-3.19,4.2c-.51.74-1,1.5-1.5,2.25S293,27.42,292.46,28c-.78,1-1.6,1.91-2.4,2.86S288.33,33,287.44,34a22.21,22.21,0,0,0-2.25,2.94,18.69,18.69,0,0,0-1.06,1.9,4.05,4.05,0,0,0-.45,1.62.49.49,0,0,0,0,.12.3.3,0,0,0,.35.27,2.27,2.27,0,0,0,1-.32,9.23,9.23,0,0,0,1.17-.79l.4-.32v0a4.7,4.7,0,0,0,.39.69,5.23,5.23,0,0,0,2.33,1.82,5.45,5.45,0,0,0,3.27.23A11.34,11.34,0,0,0,295.5,41c1.6-.85,3.09-1.89,4.62-2.87s2.93-1.82,4.37-2.77c2.89-1.91,5.87-3.67,8.81-5.49s5.8-3.65,8.63-5.58A38,38,0,0,0,326,21.21,30.29,30.29,0,0,0,328.16,19a9.93,9.93,0,0,0,1.29-1.92,5.62,5.62,0,0,0,.48-1.54,3.51,3.51,0,0,0-.06-1.61c-.09-.32-.16-.61-.28-.92a6.24,6.24,0,0,0-.47-.84,5.92,5.92,0,0,0-1-1.13,8.15,8.15,0,0,0-2.27-1.48,6.58,6.58,0,0,0-1.08-.38c-.61-.17-1.23-.33-1.86-.44a21,21,0,0,0-3.82-.35c-.57,0-1.15,0-1.71.07Zm-33.7,32v0Z"/><path class="cls-3" d="M58.06,205.1l.12.22h0a21.16,21.16,0,0,0,2.27,3.37,33.69,33.69,0,0,0,2.84,3.13c.6.58,1.2,1.16,1.85,1.69s1.23,1,1.85,1.44c1.2.9,2.48,1.69,3.73,2.5.7.45,1.4.91,2.12,1.29l1.22.64.18.08h0c-.74-.66-1.49-1.31-2.23-2-1-.9-2-1.83-2.93-2.74s-1.89-1.72-2.85-2.56-1.93-1.69-2.91-2.52l-2.83-2.35c-.78-.66-1.55-1.31-2.3-2l-.12-.22Z"/><path class="cls-4" d="M185.92,136.75c-2.8.11-5.61.22-8.41.48s-5.59.55-8.37,1-5.64.84-8.45,1.33-5.7,1-8.54,1.61c-1.38.29-2.77.59-4.14.95-1.55.42-3.1.85-4.64,1.3-2.66.78-5.3,1.61-7.92,2.47-2.44.8-4.87,1.6-7.32,2.37s-5.1,1.63-7.64,2.44-5,1.59-7.55,2.36-5.29,1.63-7.91,2.55-5.41,2-8,3.2-5,2.37-7.46,3.66-5,2.83-7.36,4.36c-2.24,1.41-4.47,2.83-6.74,4.19l-.67.4-.19.12-.34.19h0l0,0h0c-2.26,1.33-4.51,2.67-6.71,4.1-2.45,1.58-4.87,3.19-7.25,4.86-2.17,1.52-4.31,3.09-6.44,4.65-1.16.85-2.29,1.72-3.4,2.63-.48.4-.93.82-1.39,1.25-.3.28-.58.6-.86.9l-.25.29a3.22,3.22,0,0,0-1.07.52A2.75,2.75,0,0,0,46,192a3.84,3.84,0,0,0-.19.76,2.4,2.4,0,0,0,0,.28c0,.1,0,.2,0,.3a3.81,3.81,0,0,0,.28,1.14,5.17,5.17,0,0,0,.55.93,5,5,0,0,0,.69.83,3.51,3.51,0,0,0,.77.65c.07.11.14.22.22.33a7.64,7.64,0,0,0,.51.62,8.46,8.46,0,0,0,2.09,1.58,1.8,1.8,0,0,0,1.74.21c-.41-.51-.8-1-1.16-1.59a17.21,17.21,0,0,1-1.07-1.86c-.27-.57-.5-1.15-.75-1.72l-.11-.12h0a.15.15,0,0,1,0-.1h0a.15.15,0,0,0,0,.1h0l.11.12c.25.57.48,1.15.75,1.72A17.21,17.21,0,0,0,51.5,198c.36.55.75,1.08,1.16,1.59s.92,1.13,1.4,1.67a39.5,39.5,0,0,0,3.23,3.24c.29.28.59.55.89.81a4.52,4.52,0,0,1-.25-.49,17.22,17.22,0,0,1-.87-2c-.12-.33-.2-.67-.32-1s-.13-.35-.19-.52a1.67,1.67,0,0,0-.08-.2.38.38,0,0,1-.08-.17v0a.38.38,0,0,0,.08.17,1.67,1.67,0,0,1,.08.2c.06.17.12.34.19.52s.2.66.32,1a17.22,17.22,0,0,0,.87,2,4.52,4.52,0,0,0,.25.49c.75.68,1.52,1.33,2.3,2l2.83,2.35c1,.83,1.94,1.67,2.91,2.52s1.92,1.69,2.86,2.56S71,216.58,72,217.48c.74.67,1.49,1.32,2.23,2l.67.59c1,.87,2,1.73,3,2.57,2.09,1.74,4.24,3.41,6.42,5a78.11,78.11,0,0,0,6.58,4.58c2.44,1.47,4.95,2.83,7.44,4.21s5,2.71,7.55,4c2.3,1.17,4.66,2.24,7,3.34,2.59,1.23,5.18,2.44,7.78,3.65s5.07,2.36,7.66,3.43,5.41,2.13,8.16,3.05a87,87,0,0,0,8.53,2.39c2.65.58,5.32,1.1,8,1.64s5.24,1.1,7.9,1.46c5.56.77,11.17,1.12,16.73,1.86,2.63.34,5.24.82,7.88,1.12s5.13.55,7.71.7c3,.17,6,.14,8.93,0,2.63-.08,5.27-.1,7.9-.24A128.77,128.77,0,0,0,225.68,261a100,100,0,0,0,16.82-5c2.48-.9,4.93-1.85,7.31-3a91,91,0,0,0,8-4.43c2.49-1.5,5-3,7.38-4.65a55,55,0,0,0,5.36-4.14l-.23.08.23-.08.06,0a12.21,12.21,0,0,0,2.89-2.23l2-1.8c1.42-1.3,2.79-2.65,4.24-3.93s2.91-2.37,4.42-3.48,3-2.18,4.46-3.38c.76-.64,1.51-1.29,2.22-2s1.64-1.65,2.43-2.51a36.6,36.6,0,0,0,3.43-4.5c.47-.7.92-1.41,1.36-2.13l1.1-.92a47.26,47.26,0,0,0,4.69-4.59c.82-.89,1.58-1.85,2.31-2.81.37-.49.78-1,1.1-1.49l.32-.52a3.56,3.56,0,0,0,.59-1.47c0-.15.07-.31.11-.47a4.16,4.16,0,0,0,0-1.27,2.1,2.1,0,0,0-.18-.63c.56-.64,1.12-1.27,1.69-1.9.86-1,1.74-1.91,2.63-2.85s1.81-1.88,2.66-2.86a6.76,6.76,0,0,0,.61-.8,9.22,9.22,0,0,0,.9-1.7,4.36,4.36,0,0,1-1.67,1.37c-.41.19-.82.37-1.24.52s-.92.29-1.39.43a8.73,8.73,0,0,0-1,.38l-.4.17v0c-.65,1.06-2,1.36-3.07,1.64-.86.23-1.74.38-2.61.54l-1,.18-.67.73a3,3,0,0,0-.47-.47.71.71,0,0,0-.15-.08,3.86,3.86,0,0,1-.49.06h0l-.52,0,.53-.06a.59.59,0,0,1,.31-.09.48.48,0,0,1,.18,0c.44,0,.86-.11,1.29-.18l1-.18c.87-.16,1.75-.31,2.61-.54,1.11-.28,2.42-.58,3.07-1.64v0l.4-.17a8.73,8.73,0,0,1,1-.38c.47-.14.93-.27,1.39-.43s.83-.33,1.24-.52a4.36,4.36,0,0,0,1.67-1.37,3,3,0,0,0,.57-1.4,3,3,0,0,0-.22-1.5,5,5,0,0,0-.37-1.25,4.36,4.36,0,0,0-1.22-1.6,3.89,3.89,0,0,0-.78-.48c-1.26.23-2.53.43-3.8.58-1.82.22-3.65.38-5.48.48h-.09c-1.29.36-2.55.8-3.81,1.27-1.53.56-3,1.16-4.59,1.63a21.23,21.23,0,0,1-2.25.42c-.6.08-1.21.1-1.82.12a18.66,18.66,0,0,1-3.33-.46c-.39-.12-.77-.25-1.15-.39a11.62,11.62,0,0,1-1.13-.53,20.45,20.45,0,0,1-3.3-2.57c-.7-.7-1.38-1.41-2-2.15a20.36,20.36,0,0,1-1.67-2.24c0-.34-.08-.68-.09-1a18.26,18.26,0,0,1,.15-2.22,21,21,0,0,1,.42-2.24c.26-.86.59-1.7.92-2.53h0c.12-.31.25-.62.37-.94l.07-.19.06-.15v0L282,170h0c.15-.41.29-.83.43-1.25s.37-1.06.57-1.59a4.63,4.63,0,0,1,.34-.71,5.06,5.06,0,0,0,.47-1.52,4.29,4.29,0,0,0-.06-1.82,1.81,1.81,0,0,1-.47.26,2.72,2.72,0,0,1-1,.23,2.72,2.72,0,0,0,1-.23,1.81,1.81,0,0,0,.47-.26,4,4,0,0,0-.85-1.64,12.12,12.12,0,0,0-3.68-2.48c-1.07-.57-2.14-1.14-3.24-1.65s-2.45-1.09-3.68-1.61l-.86-.35c-.95-.37-1.9-.72-2.85-1.11-1.23-.5-2.46-1-3.7-1.51s-2.53-1-3.82-1.49-2.37-.86-3.57-1.27c-2.47-.84-4.91-1.8-7.4-2.62-1.27-.42-2.58-.76-3.87-1.13s-2.58-.71-3.86-1.06c-2.76-.77-5.56-1.42-8.35-2.08-2.54-.6-5.07-1.22-7.63-1.71s-5.14-.86-7.71-1.26c-1.29-.2-2.57-.4-3.85-.62s-2.46-.44-3.7-.65q-3.94-.65-7.91-1.11c-2.75-.33-5.5-.58-8.25-.77-1.41-.09-2.81-.18-4.21-.24-.65,0-1.31,0-2,0-1,0-1.93,0-2.9.06ZM52.56,189.43c2.11-1.32,4.1-2.83,6.08-4.35,4-3.07,8-6.16,12.15-8.94,2.3-1.52,4.65-3,7-4.41,4.19-2.44,8.45-4.77,12.83-6.87,4.66-2.24,9.39-4.33,14.14-6.36,4.55-1.95,9.15-3.77,13.77-5.53s9.15-3.31,13.83-4.65S141.9,146,146.71,145s9.74-1.74,14.65-2.29q7.14-.81,14.31-1.28c4.42-.29,8.86-.39,13.29-.41-4.43,0-8.87.12-13.29.41q-7.17.48-14.31,1.28c-4.91.55-9.8,1.33-14.65,2.29s-9.58,2-14.33,3.28-9.28,2.91-13.83,4.65-9.22,3.58-13.77,5.53c-4.75,2-9.48,4.12-14.14,6.36-4.38,2.1-8.64,4.43-12.83,6.87-2.37,1.42-4.72,2.89-7,4.41-4.19,2.78-8.16,5.87-12.15,8.94-2,1.52-4,3-6.08,4.35-.8.5-1.6,1-2.43,1.42.83-.44,1.63-.92,2.43-1.42Zm223-26.07.26.13h0l-.25-.13Zm5.65.52a3.42,3.42,0,0,0,1-.31,3.42,3.42,0,0,1-1,.31,4.74,4.74,0,0,1-.55,0,4.74,4.74,0,0,0,.55,0Zm-2.57,9a18,18,0,0,1,.34-2.43,15.76,15.76,0,0,1,.77-2c.12-.27.24-.54.35-.82a5.09,5.09,0,0,0,.29-1.1c0-.12,0-.25,0-.39,0,.14,0,.27,0,.39a5.09,5.09,0,0,1-.29,1.1c-.11.28-.23.55-.35.82a15.76,15.76,0,0,0-.77,2,18,18,0,0,0-.34,2.43c-.08.76-.14,1.51-.16,2.27,0-.76.08-1.51.16-2.27ZM74.75,171.37l-.19.12.19-.12Zm-.54,6.5L74,178l.21-.13Zm239.48,6.91h0Zm-.09,0-.27,0,.27,0Zm-19.6,9a22.76,22.76,0,0,0,2.47-.28,25.91,25.91,0,0,0,3.25-.86c.88-.27,1.73-.61,2.59-.93,1.52-.58,3.06-1.14,4.62-1.61.73-.17,1.47-.32,2.2-.46-.73.14-1.47.29-2.2.46-1.56.47-3.1,1-4.62,1.61-.86.32-1.71.66-2.59.93a25.91,25.91,0,0,1-3.25.86,22.76,22.76,0,0,1-2.47.28c-.54,0-1.08,0-1.62,0,.54,0,1.08,0,1.62,0Zm14.81-3.82-.17.17h0l.18-.18Zm-.28.29h0Zm-.16.16-.09.1.09-.1Zm-258.25.47Zm.14.09.16.1-.16-.1Zm.13,1.69A11.36,11.36,0,0,0,53,191.57a11.36,11.36,0,0,1-2.64,1.05,6.35,6.35,0,0,1-1.56.25,6.35,6.35,0,0,0,1.56-.25ZM53,191.57l0,.06a.21.21,0,0,1,0-.06Zm-6.09.61Zm0,.22h0v0Zm.24.14h0Zm1.64.33h0Zm.93,1.06h0Zm4,3.92c0,.05,0,.09,0,.14s0-.09,0-.14Zm252.31.59h0Zm-.13,0-.14,0,.14,0ZM78.45,219.49a2,2,0,0,0,.39-1.22,2,2,0,0,1-.39,1.22,2.39,2.39,0,0,1-.46.44,2.39,2.39,0,0,0,.46-.44Zm-1.49.78h0Zm200.48,4.55-.17.17.17-.17ZM269.59,240h0Z"/><path class="cls-3" d="M302,195.94l-.54.08a1,1,0,0,0-.49.21,4.44,4.44,0,0,0-.38.37,1.55,1.55,0,0,0-.34.53.67.67,0,0,0-.07.37.46.46,0,0,0,.51.39l.11,0,.51.13.16,0a1.29,1.29,0,0,0,.39,0l.41-.06a1,1,0,0,0-.13-2Z"/><path class="cls-5" d="M293.36,68.41c-1,0-2,.07-2.95.17s-1.82.24-2.73.4a32.48,32.48,0,0,0-3.37.83,24.64,24.64,0,0,0-2.75.92c-.37.15-.74.32-1.1.5a10.22,10.22,0,0,0-2.15,1.31,3.21,3.21,0,0,0-1.19,2.61l-.5.16a21.66,21.66,0,0,0-3.46,1.5,34.81,34.81,0,0,0-3.58,2.13,14,14,0,0,0-1.43,1.11,11,11,0,0,0-1.54,1.59l-.19.26a4.21,4.21,0,0,0-.88.64A4.42,4.42,0,0,0,264.46,84a10.66,10.66,0,0,0-.59,1.4c-.34.83-.86,1.57-1.16,2.41a43.49,43.49,0,0,0-1.53,5.86c-.76,3.61-1.64,7.21-2.17,10.87a36.54,36.54,0,0,0-.5,5.43c0,1.16,0,2.31.09,3.47a21.19,21.19,0,0,0,.4,2.75,34.43,34.43,0,0,1,.71,5.06,29.66,29.66,0,0,0,.5,5.49,23.94,23.94,0,0,0,1.93,5.31c.4.78.83,1.54,1.28,2.29a32.52,32.52,0,0,0,1.77,2.87c1.06,1.47,2.28,2.83,3.48,4.19,1.35,1.53,2.79,3,4.29,4.37a42.72,42.72,0,0,0,4.42,3.5,28,28,0,0,0,5,3,8.63,8.63,0,0,0,1.11.4,7.29,7.29,0,0,0,2,.38,8.68,8.68,0,0,0,1.84-.15,10.15,10.15,0,0,0,2-.58,7.76,7.76,0,0,0,1.75-1.09c.28-.23.52-.49.78-.75.6-.61,1.25-1.19,1.88-1.76a40.24,40.24,0,0,1,3.59-2.93c1.26-.9,2.56-1.77,3.88-2.58.92-.53,1.86-1,2.82-1.47a25.27,25.27,0,0,1,3.48-1.24c.86-.23,1.72-.47,2.58-.69a13.25,13.25,0,0,1,2.56-.41,47.37,47.37,0,0,1,4.89.63c1.75.26,3.49.52,5.23.82.88.15,1.75.31,2.63.45l1.17.15a6,6,0,0,0,3.47-.47,4.57,4.57,0,0,0,1.83-1.6,8.2,8.2,0,0,0,.65-1.29,11.68,11.68,0,0,0,.5-2.12c.14-.75.23-1.52.3-2.28s.18-1.71.25-2.57.07-1.77.08-2.65,0-1.8.06-2.7.19-1.9.34-2.84.32-1.84.46-2.76a21.23,21.23,0,0,0,.2-3.38c0-1.88-.2-3.77-.38-5.65a37.52,37.52,0,0,0-.57-4.22,30.4,30.4,0,0,0-1.42-4.86c-.5-1.31-1.09-2.58-1.54-3.91s-.83-2.53-1.2-3.8a56,56,0,0,0-1.72-5.52c-.32-.84-.69-1.67-1.08-2.49-.49-1-1.09-2-1.68-3a24.91,24.91,0,0,0-8-8.2c-1-.66-2.07-1.25-3.14-1.82-.87-.47-1.79-.84-2.69-1.22-1.75-.73-3.54-1.34-5.35-1.9a40.71,40.71,0,0,0-12-1.79Zm34.25,66.75a.3.3,0,0,1-.11.06l.11-.06Z"/><path class="cls-6" d="M282.09,169.22a10.35,10.35,0,0,0-.65,2.25l.37-.94c.38-1,.69-2,1-2.94a1.09,1.09,0,0,0,.08-.15,19.27,19.27,0,0,0-.84,1.78Z"/><path class="cls-7" d="M311.12,144.19a31.31,31.31,0,0,0-4.41.67,20.6,20.6,0,0,0-4.76,1.63,27.26,27.26,0,0,0-4.37,2.84,22.34,22.34,0,0,0-1.94,1.83,8.08,8.08,0,0,0-.72.83l-.18.25c-.61.38-1.2.79-1.79,1.21a17.9,17.9,0,0,0-2,1.58,25.33,25.33,0,0,0-3.8,4.46,48.44,48.44,0,0,0-2.7,4.9c-.42.83-.81,1.68-1.24,2.52l-.35.68c-.35,1-.66,2-1,2.94-.12.32-.25.63-.37.94l-.06.36a11,11,0,0,0,0,1.52c0,.42,0,.83,0,1.24s0,.77.08,1.16a11.12,11.12,0,0,0,.44,1.72,7.44,7.44,0,0,0,1.49,2.55,10.93,10.93,0,0,0,5,3.36,19.08,19.08,0,0,0,2.89.72,20.57,20.57,0,0,0,2.48.21c1.81.07,3.63,0,5.45.1s3.93.11,5.89,0h.1c1.83-.1,3.66-.26,5.48-.48,1.27-.15,2.54-.35,3.8-.58l1.6-.29c1.81-.33,3.63-.68,5.44-1,3.81-.73,7.62-1.43,11.42-2.18,3.58-.71,7.15-1.46,10.77-2a59.19,59.19,0,0,0,11.15-2.44A28.56,28.56,0,0,0,360,173a8.72,8.72,0,0,0,2.31-2,8.4,8.4,0,0,0,.95-1.54,5,5,0,0,0,.29-3,6.71,6.71,0,0,0-.42-1.58,5.12,5.12,0,0,0-.25-.53c-.07-.14-.14-.28-.22-.42a2.06,2.06,0,0,0-.23-.41,9.33,9.33,0,0,0-.55-.84q-.39-.56-.84-1.08a18.89,18.89,0,0,0-1.41-1.42,19.51,19.51,0,0,0-2.09-1.66c-.72-.53-1.45-1.05-2.21-1.5a39.11,39.11,0,0,0-5.66-2.88c-1.75-.69-3.49-1.43-5.23-2.16s-3.43-1.38-5.15-2.06-3.57-1.29-5.38-1.91-3.41-1.21-5.16-1.7a44.6,44.6,0,0,0-5.92-1.28c-1.84-.24-3.69-.44-5.53-.62-1.45-.14-2.91-.26-4.37-.26-.6,0-1.2,0-1.79.07Zm46.14,21.75,0,.05.17.28c-.07-.11-.14-.22-.2-.33Zm.68,1.63h0a.31.31,0,0,1,0,.08l0-.08Z"/><path class="cls-3" d="M298.84,193.35l-.81.22c-.21.08-.43.17-.64.27a4.26,4.26,0,0,0-.85.51l-.46.39a.27.27,0,0,0-.08.07h-.58l-1.15,0a.24.24,0,0,0,0,.47c.44.08.88.15,1.31.24a1.7,1.7,0,0,0,.59,2A2.24,2.24,0,0,0,298,199a4.79,4.79,0,0,0,1.31-.06l.57-.11,1-.2c.31-.07.61-.16.91-.24s.67-.19,1-.3a2.84,2.84,0,0,0,.85-.43l.35-.32a1.66,1.66,0,0,0,.54-.72,1.75,1.75,0,0,0,0-1.35,1.79,1.79,0,0,0-.57-.73,1.9,1.9,0,0,0-1.29-.34l-.69.06-.22,0,0-.06a2.52,2.52,0,0,0-2.06-1,2.86,2.86,0,0,0-.77.1Z"/><path class="cls-3" d="M301.37,195.68l-2.83.39c-.64.08-1.28.2-1.93.26l-2.36.21h0a1.63,1.63,0,0,0-1.1-.62,4,4,0,0,0-.69,0,1.87,1.87,0,0,0-.77.31,3.06,3.06,0,0,0-.59.35,3.33,3.33,0,0,0-.51.55,1.63,1.63,0,0,0,1.53,2.6,2.18,2.18,0,0,0,.77-.13l.52-.2a1.79,1.79,0,0,0,.76-.6h0l.8-.29,2.15-.69,1.71-.47c.89-.24,1.78-.46,2.68-.67a.5.5,0,0,0-.06-1Z"/><path class="cls-8" d="M284.15,204.36c-2.27,2.15-4.54,4.3-6.78,6.5-1,1-2.06,2.09-3.14,3.09s-2,1.73-3,2.57c-2.1,1.79-4.24,3.52-6.41,5.23s-4.32,3.35-6.58,4.88c-2.08,1.41-4.21,2.74-6.35,4a137.81,137.81,0,0,1-13.85,6.82,115.85,115.85,0,0,1-14.39,5c-2.84.75-5.71,1.43-8.6,2s-6,1-9.08,1.4-6.25.64-9.38.83-6.3.21-9.45.23H175.5a147.73,147.73,0,0,1-17.34-.85l6,1.2a168.34,168.34,0,0,0,22,3.14c6.77.44,13.53.54,20.31.56a60.55,60.55,0,0,0,6.17-.31,43,43,0,0,0,6.15-1.18,86.39,86.39,0,0,0,9.1-3.25c3.2-1.35,6.36-2.82,9.54-4.22s6.44-2.69,9.63-4.09c1.68-.74,3.38-1.47,5-2.29,1.32-.65,2.62-1.35,3.9-2.08,2.56-1.54,5.09-3.14,7.51-4.89s5-3.94,7.43-6,4.85-3.94,7.31-5.88a81.75,81.75,0,0,0,6.5-5.53c.4-.45.8-.91,1.19-1.38.18-.5.36-1,.52-1.51a10.29,10.29,0,0,0,.23-1.84v-.66a22.9,22.9,0,0,1,.15-2.87c.05-.37.08-.74.11-1.11h0c-.93.81-1.84,1.64-2.74,2.48Z"/><path class="cls-8" d="M257.58,248c-1.73.85-3.5,1.61-5.26,2.37-3.32,1.45-6.71,2.75-10,4.19s-6.87,3-10.36,4.43c-2.08.82-4.2,1.58-6.34,2.24.71.06,1.43.05,2.14.05s1.62,0,2.43-.07a49.09,49.09,0,0,0,9.31-1.64c3.47-.92,6.88-2,10.29-3.13a36.9,36.9,0,0,0,4.42-1.69,19.66,19.66,0,0,0,3.21-1.85l1.24-.93a9.62,9.62,0,0,0,1.32-1.38c.36-.4.71-.82,1.06-1.23a4.15,4.15,0,0,0,.7-3.6c-1.36.79-2.73,1.55-4.13,2.24Z"/><path class="cls-9" d="M285.88,158.94a11.58,11.58,0,0,0-1.44.85,17.42,17.42,0,0,0-1.46,1.1c-.23.19-.44.38-.65.58l-.77.49a14.81,14.81,0,0,0-2.26,1.92,18.48,18.48,0,0,0-2.14,2.53,16.37,16.37,0,0,0-.89,1.58c-.22.42-.45.83-.66,1.25a14.49,14.49,0,0,0-1.49,5.63,12.22,12.22,0,0,0,.07,3,10,10,0,0,0,1,3c.33.59.63,1.21.94,1.82.39.76.88,1.49,1.34,2.22a18.11,18.11,0,0,0,1.24,1.77c.48.58,1,1.13,1.51,1.68s.94,1.1,1.39,1.65.89,1,1.32,1.54a29,29,0,0,1,2.32,3.09,17.15,17.15,0,0,1,1.44,3,12.14,12.14,0,0,1,.22,1.23,13.5,13.5,0,0,1,.07,1.42c0,.51,0,1-.05,1.53.75-.65,1.51-1.29,2.3-1.9v0c.56-.44,1.13-.87,1.71-1.28l.13-.09-.13.09c-.58.41-1.15.84-1.71,1.28,0,.36,0,.72,0,1.07s.26,1,.41,1.45a4.77,4.77,0,0,0,1.54,2q.6.36,1.23.69-.63-.33-1.23-.69a4.77,4.77,0,0,1-1.54-2c-.15-.47-.29-1-.41-1.45s0-.71,0-1.07c-.79.61-1.55,1.25-2.3,1.9,0,.37-.06.74-.11,1.11a22.9,22.9,0,0,0-.15,2.87v.66a10.29,10.29,0,0,1-.23,1.84c-.16.51-.34,1-.52,1.51-.39.47-.79.93-1.19,1.38a81.75,81.75,0,0,1-6.5,5.53c-2.46,1.94-4.9,3.88-7.31,5.88s-4.86,4.09-7.43,6-4.95,3.35-7.51,4.89c-1.28.73-2.58,1.43-3.9,2.08-1.65.82-3.35,1.55-5,2.29-3.19,1.4-6.44,2.68-9.63,4.09s-6.34,2.87-9.54,4.22a86.39,86.39,0,0,1-9.1,3.25,43,43,0,0,1-6.15,1.18,60.55,60.55,0,0,1-6.17.31c-6.78,0-13.54-.12-20.31-.56a168.34,168.34,0,0,1-22-3.14l-6-1.2-1.45-.17c-6.59-.86-13.13-2.1-19.6-3.6-1.17-.27-2.33-.58-3.48-.88l.94.25-.94-.25c1.15.3,2.31.61,3.48.88,6.47,1.5,13,2.74,19.6,3.6l1.45.17-4.68-.91c-3.35-.63-6.68-1.3-10-2.12A140.42,140.42,0,0,1,124,235.92l0,0-.15-.11-1.56-1.16c-.73-.54-1.5-1-2.26-1.51s-1.45-.88-2.19-1.3l-2.53-1.44c-3.34-1.9-6.67-3.82-10-5.7-1.75-1-3.5-2-5.24-3s-3.26-2-4.86-3-3.3-2.05-5-3-3.16-2-4.73-3c-3.09-2-6.16-4-9.17-6.11-1.49-1-3-2-4.5-3.08s-2.88-2.19-4.25-3.34c-1.59-1.33-3.12-2.73-4.62-4.16-.79-.79-1.57-1.58-2.32-2.42-.88-1-1.74-2-2.61-3s-1.74-1.88-2.53-2.88c-.52-.65-.94-1.48-1.86-1.6h-.22a1.78,1.78,0,0,0-1.49.8l-.09.13-.26.21c-.9-.12-1.79.61-2.49,1.13-.53.4-1,.81-1.59,1.17a11.21,11.21,0,0,0-1.73,1.39l-.49.37a2.37,2.37,0,0,0-1.16,2.16,1.72,1.72,0,0,0,1.19,1.39,1.68,1.68,0,0,0,.43.07,1.46,1.46,0,0,0,.59,0h0a3.39,3.39,0,0,1,0-.55,3.39,3.39,0,0,0,0,.55,1.41,1.41,0,0,0,.57-.22l.26-.15c.15-.1.3-.22.45-.34l.61-.48.59-.37.72-.43-.72.43-.59.37-.61.48c-.15.12-.3.24-.45.34l-.26.15a1.41,1.41,0,0,1-.57.22,5.94,5.94,0,0,0,.32,1.29c.21.57.43,1.1.69,1.64a18,18,0,0,0,1.12,2,45.67,45.67,0,0,0,4.35,5.89c1.53,1.76,3.2,3.39,4.86,5s3.36,3.49,5.08,5.21c.52.53,1,1,1.61,1.52a10.36,10.36,0,0,0,1.24.94,10.72,10.72,0,0,0,1.93,1.08l.79.34a16.81,16.81,0,0,0,1.61.52,2.57,2.57,0,0,0,2.48-.36,2.46,2.46,0,0,0,.55-.61c-2.16-1.63-4.28-3.3-6.29-5.11a48.18,48.18,0,0,1-4.55-4.6,16.23,16.23,0,0,1-1.73-2.74,8.13,8.13,0,0,1-.62-1.88c-.09-.24-.18-.47-.28-.7l-.12-.19.12.19c.1.23.19.46.28.7a8.13,8.13,0,0,0,.62,1.88,16.23,16.23,0,0,0,1.73,2.74,48.18,48.18,0,0,0,4.55,4.6c2,1.81,4.13,3.48,6.29,5.11a2.58,2.58,0,0,0,.41-1.37,2.58,2.58,0,0,1-.41,1.37l2.39,1.76c2.93,2.13,5.94,4.12,9,6,3.26,2,6.51,4.07,9.84,6,2.12,1.22,4.27,2.41,6.42,3.6,3.07,1.74,6.09,3.57,9.13,5.36,2,1.17,4,2.33,6,3.39,1.66.87,3.35,1.66,5,2.44,3.32,1.53,6.71,2.82,10.14,4.09s6.6,2.47,10,3.39c2.32.63,4.65,1.24,7,1.74,1.85.39,3.71.76,5.56,1.14,3.73.76,7.45,1.6,11.19,2.34a166.86,166.86,0,0,0,21.83,2.8c7,.46,14,.52,21.06.51a68.93,68.93,0,0,0,7-.28,48.45,48.45,0,0,0,5.49-1c1.85-.4,3.68-.9,5.49-1.46a8.08,8.08,0,0,1-.86-.11,15.29,15.29,0,0,1-2-.43,6.49,6.49,0,0,1-1.08-.35,11.93,11.93,0,0,1-1.45-.8,7.08,7.08,0,0,1-.86-.87,2,2,0,0,1-.42-1.53,2.2,2.2,0,0,1,.76-1.35,8.55,8.55,0,0,1,2.19-1.46l.16-.08-.16.08a8.55,8.55,0,0,0-2.19,1.46,2.2,2.2,0,0,0-.76,1.35,2,2,0,0,0,.42,1.53,7.08,7.08,0,0,0,.86.87,11.93,11.93,0,0,0,1.45.8,6.49,6.49,0,0,0,1.08.35,15.29,15.29,0,0,0,2,.43,8.08,8.08,0,0,0,.86.11c2.15-.66,4.27-1.42,6.35-2.24,3.49-1.38,6.91-2.93,10.36-4.43s6.71-2.74,10-4.19c1.76-.76,3.53-1.52,5.26-2.37,1.4-.69,2.77-1.45,4.13-2.24l.66-.38a117.9,117.9,0,0,0,10.75-6.94c1.42-1.06,2.76-2.22,4.09-3.41s2.56-2.2,3.85-3.29c2.68-2.25,5.54-4.29,8.19-6.57,1.73-1.49,3.32-3.08,4.9-4.72a47.92,47.92,0,0,0,3.46-4.2c1.1-1.44,2.15-2.92,3.33-4.3s2.37-2.8,3.46-4.26c2-2.75,4.07-5.51,6-8.36.9-1.36,1.92-2.64,2.9-3.94.52-.69,1-1.37,1.59-2s1-1,1.42-1.61a7.47,7.47,0,0,0,1-1.7,5.38,5.38,0,0,0-1.71-6.23,5.68,5.68,0,0,0-3.29-1.05,4.2,4.2,0,0,0-2.05.49c-.66.37-1.23.74-1.84,1.16s-1.15.79-1.7,1.25a25.19,25.19,0,0,0-2,2,3.28,3.28,0,0,0-.59-.52l-.32-.23a4.63,4.63,0,0,0-2.26-.82,13.51,13.51,0,0,0-2,0c-.81,0-1.6.08-2.4.14s-1.41.12-2.12.22a11.64,11.64,0,0,1-5,0l-1.43-.47a9.26,9.26,0,0,1-1.77-.61c-1-.54-2.05-1-3.06-1.54a5.67,5.67,0,0,1-2-1.89c-.24-.36-.46-.72-.68-1.09a13.83,13.83,0,0,1-1.23-2.78,11.13,11.13,0,0,1-.27-1.53c0-.39,0-.79,0-1.19a12.06,12.06,0,0,1,.17-2.17c.13-.72.18-1.47.34-2.19a13,13,0,0,1,1.05-2.46,21.13,21.13,0,0,1,1.37-1.89c.51-.65,1-1.32,1.49-2a25.4,25.4,0,0,0,1.62-2.58,23.83,23.83,0,0,0,1-2.44.54.54,0,0,0-.49-.72.79.79,0,0,0-.2,0Zm-7.63,17.55c0-.73.15-1.45.26-2.17a23.41,23.41,0,0,1,.53-2.75l.33-1.28a14.75,14.75,0,0,1,1.09-2.6,34.28,34.28,0,0,1,2.32-2.93,14.48,14.48,0,0,0,1.26-1.83c.34-.58.57-1.2.88-1.79l0,0a.43.43,0,0,0,.13-.31.43.43,0,0,1-.13.31l0,0c-.31.59-.54,1.21-.88,1.79a14.48,14.48,0,0,1-1.26,1.83,34.28,34.28,0,0,0-2.32,2.93,14.75,14.75,0,0,0-1.09,2.6l-.33,1.28a23.41,23.41,0,0,0-.53,2.75c-.11.72-.22,1.44-.26,2.17Zm10.25,16.1a7.42,7.42,0,0,1-1-.45,9.7,9.7,0,0,1-1.57-1,16.45,16.45,0,0,0-1.65-1.35,19.11,19.11,0,0,1-4.15-2.93,13.76,13.76,0,0,1-1.74-2.15,15.29,15.29,0,0,1-1.33-2.69,24.08,24.08,0,0,1-1.17-3.82,12.81,12.81,0,0,1-.23-2.69,12.81,12.81,0,0,0,.23,2.69,24.08,24.08,0,0,0,1.17,3.82,15.29,15.29,0,0,0,1.33,2.69,13.76,13.76,0,0,0,1.74,2.15,19.11,19.11,0,0,0,4.15,2.93,16.45,16.45,0,0,1,1.65,1.35,9.7,9.7,0,0,0,1.57,1,7.42,7.42,0,0,0,1,.45l.61.2-.61-.2Zm-4.4-6.37.32.17-.32-.17Zm16.42,8.15a5.86,5.86,0,0,0,.94-.06,4.88,4.88,0,0,0,2.34-.9l.31-.24a3.78,3.78,0,0,0,1.42-3,3.78,3.78,0,0,1-1.42,3l-.31.24a4.88,4.88,0,0,1-2.34.9,5.86,5.86,0,0,1-.94.06h0Zm-9.24-3.53-.35.09.35-.09Zm-.37.09h0Zm-.15,0h0Zm0,0a1.51,1.51,0,0,0-.33.13l.13-.06.2-.07Zm-1.58,1.7v0Zm-239.65.22.18.09-.18-.08ZM289,193s0,.07,0,.11,0-.07,0-.11Zm8.74.51h0Zm.16,0h0Zm.11,0h0Zm.11,0,0,0,0,0Zm-5.89,0,1.18.25a16.68,16.68,0,0,0,2.09.49,16.68,16.68,0,0,1-2.09-.49l-1.18-.25Zm6,0h0Zm.09,0,.07,0-.07,0Zm.1,0,.07,0-.07,0Zm.1,0,.07,0-.07,0Zm.1,0,.06,0-.06,0Zm.09,0,.07,0-.07,0Zm.11,0,0,0,0,0Zm.11,0h0Zm.4.16.06,0-.06,0Zm-1,.44.61,0-.61,0h0Zm-1.76,0h0Zm-7.78.74c0-.13,0-.28,0-.42,0,.14,0,.29,0,.42a12.2,12.2,0,0,0,.59,2.58,12.2,12.2,0,0,1-.59-2.58Zm9.1.16h0Zm3.55.67v0ZM295,196l0,0,0,0Zm6.58,0a.25.25,0,0,1,0,.07.25.25,0,0,0,0-.07Zm-6.68,0,0,0,0,0Zm-.09,0-.06,0,.06,0Zm-.1.05-.06,0,.06,0Zm-.1,0-.05,0,.05,0Zm-.09.05-.06,0,.06,0Zm-.1.05-.05,0,.05,0Zm-.1.06,0,0,0,0Zm-.11.06h0Zm.67,9a6.76,6.76,0,0,0,3-1.36,7.22,7.22,0,0,0,.68-.56l.16-.07a4.72,4.72,0,0,0,2.55-3,4.88,4.88,0,0,0,.58-1.71c0-.2,0-.39,0-.59a4.36,4.36,0,0,0,0-.51,4.36,4.36,0,0,1,0,.51c0,.2,0,.39,0,.59a4.88,4.88,0,0,1-.58,1.71,4.72,4.72,0,0,1-2.55,3l-.16.07a7.22,7.22,0,0,1-.68.56,6.76,6.76,0,0,1-3,1.36,4.58,4.58,0,0,1-.64,0,4.58,4.58,0,0,0,.64,0Zm-.2,4.49c1-1,2.07-1.91,3.07-2.91.56-.56,1.14-1.1,1.72-1.63a12.65,12.65,0,0,0,2.22-2.46,5.78,5.78,0,0,0,1-2.31c0-.13,0-.26.08-.39a3.82,3.82,0,0,0,.06-.68,3.82,3.82,0,0,1-.06.68c0,.13-.06.26-.08.39a5.78,5.78,0,0,1-1,2.31,12.65,12.65,0,0,1-2.22,2.46c-.58.53-1.16,1.07-1.72,1.63-1,1-2,1.93-3.07,2.91ZM63.71,203.26l.46.44c.7.66,1.41,1.3,2.12,1.94,1.36,1.22,2.74,2.41,4.11,3.61s2.73,2.31,4.17,3.39c3,2.26,6.13,4.36,9.3,6.38,1.65,1.06,3.34,2.07,5,3.06,1.87,1.11,3.81,2.1,5.73,3.13l-.06,0c6.75,3.81,13.37,7.87,20.22,11.53.33.18.67.35,1,.52-.34-.17-.68-.34-1-.52-6.85-3.66-13.47-7.72-20.22-11.53l.06,0c-1.92-1-3.86-2-5.73-3.13-1.69-1-3.38-2-5-3.06-3.17-2-6.31-4.12-9.3-6.38-1.44-1.08-2.82-2.21-4.17-3.39s-2.75-2.39-4.11-3.61c-.71-.64-1.42-1.28-2.12-1.94h0l-.45-.44Zm-4,1.51s0,0,0,.07,0-.05,0-.07Zm233.51.62a4.18,4.18,0,0,0,.79.11,4.18,4.18,0,0,1-.79-.11Zm1.13,4.88-.24.23.24-.23Zm-.27.26-.83.82.83-.82Zm-.87.85-.33.33.33-.33Zm-3.1,3.1q-.45.61-.93,1.2a9,9,0,0,1-1.39,1.37,3.75,3.75,0,0,1-.67.41l-.72.71,1.17-1.16-.45.45a3.75,3.75,0,0,0,.67-.41,9,9,0,0,0,1.39-1.37q.48-.59.93-1.2Zm-2.22,2.21c.43-.41.85-.83,1.27-1.25-.42.42-.84.84-1.27,1.25ZM251.15,244c2.06-1,4.09-2.13,6.08-3.3,3.15-1.84,6.32-3.7,9.31-5.8,2.59-1.81,5.08-3.77,7.54-5.76s4.82-4,7.16-6c-2.34,2.06-4.74,4-7.16,6s-4.95,3.95-7.54,5.76c-3,2.1-6.16,4-9.31,5.8-2,1.17-4,2.25-6.08,3.3h0l-.24.1.24-.09ZM126,237.6l0,0,0,0Zm55.74,19.7c-3.23,0-6.46-.06-9.68-.2a121.34,121.34,0,0,1-19.19-2.43c-3.25-.67-6.46-1.47-9.66-2.29A101.53,101.53,0,0,1,133,249.23c-1.55-.59-3.12-1.16-4.63-1.85s-3-1.46-4.46-2.28a20.78,20.78,0,0,1-4.8-3.38,8.39,8.39,0,0,1-.83-.86l-.64-.88a4.81,4.81,0,0,1-.62-1.19c-.13-.38-.29-.77-.39-1.17.1.4.26.79.39,1.17a4.81,4.81,0,0,0,.62,1.19l.64.88a8.39,8.39,0,0,0,.83.86,20.78,20.78,0,0,0,4.8,3.38c1.46.82,2.94,1.57,4.46,2.28s3.08,1.26,4.63,1.85a101.53,101.53,0,0,0,10.23,3.15c3.2.82,6.41,1.62,9.66,2.29A121.34,121.34,0,0,0,172,257.1c3.22.14,6.45.17,9.68.2ZM126,237.63l0,0,0,0Zm0,0a2.72,2.72,0,0,1,.34.42,2.72,2.72,0,0,0-.34-.42Zm-1.94,3.14c-1.86-.7-3.73-1.41-5.54-2.24l-1.35-.63,1.35.63c1.81.83,3.68,1.54,5.54,2.24a2.21,2.21,0,0,0,.66.13,2.21,2.21,0,0,1-.66-.13Zm2.28-2.71,0,0,0,0Zm0,0v0Zm0,.05h0Zm-.09,1.93h0Zm-1.33.8h0Zm80.94,10h0Zm17.95,2.49-.12,0,.12,0Zm-31.18,3.89a155.36,155.36,0,0,0,18.79-1.26c3-.4,6-.86,9-1.48l1.52-.32-1.52.32c-3,.62-6,1.08-9,1.48a155.36,155.36,0,0,1-18.79,1.26l-1.74,0,1.74,0Zm-7.25,0h0Zm3.91,0h0Z"/><path class="cls-8" d="M58.53,199.27h0c.31.54.4,1.17.68,1.72a11.77,11.77,0,0,0,1.29,2.12c.46.57.92,1.11,1.42,1.64.69.74,1.43,1.42,2.15,2.12,2.09,2,4.38,3.83,6.64,5.63s4.89,3.61,7.4,5.33c1.22.84,2.46,1.66,3.7,2.48s2.41,1.63,3.66,2.36c2.77,1.64,5.62,3.17,8.46,4.69,2.52,1.35,5,2.73,7.59,4s5.27,2.58,7.93,3.83,5.27,2.48,8,3.58,5.34,2.05,8,3,5.53,2,8.34,2.82c6,1.85,12.09,3.38,18.21,4.7,5.82,1.26,11.67,2.41,17.52,3.52A135.13,135.13,0,0,0,186.25,255c2.73.17,5.46.24,8.19.29,2.91.06,5.84.1,8.75,0,2.62-.07,5.25-.16,7.87-.28,1.25-.06,2.51-.19,3.76-.32a10.93,10.93,0,0,0,2.64-.52l.61-.22a6,6,0,0,0,1-.55,9.9,9.9,0,0,0,1.16-.83,2.37,2.37,0,0,0-.06-3.72,12.17,12.17,0,0,0-1.19-.84,8.56,8.56,0,0,0-1.53-.73,11.34,11.34,0,0,0-2.77-.55c-1.42-.16-2.83-.36-4.24-.49-2.8-.24-5.59-.47-8.39-.54q-8.75-.22-17.41-1.21c-5.66-.66-11.27-1.6-16.86-2.7s-11.48-2.34-17.2-3.56c-3.59-.77-7.17-1.57-10.73-2.47-5.4-1.46-10.71-3.23-15.93-5.21q-4-1.5-7.81-3.23c-2.64-1.18-5.28-2.34-7.9-3.55-3.48-1.62-6.91-3.31-10.34-5-3.23-1.63-6.49-3.21-9.67-5-4.68-2.71-9.3-5.51-13.84-8.45A84,84,0,0,0,66.94,201a35.52,35.52,0,0,0-3.74-1.63,13.51,13.51,0,0,0-2.36-.56c-.62-.1-1.25-.05-1.88-.15h-.05a.42.42,0,0,0-.38.58Z"/><path class="cls-8" d="M61.31,205.31c1.33,1.09,2.48,2.37,3.81,3.45a40.46,40.46,0,0,0,4,2.9c3.17,2,6.41,3.78,9.67,5.58,3,1.65,6.07,3.16,9.19,4.58s6.34,2.67,9.53,4q9.54,3.79,19.33,7c3.23,1,6.48,2,9.74,2.93,3.62,1,7.27,2,10.95,2.74,6.66,1.36,13.39,2.24,20.13,3s13.65,1.42,20.51,1.79q10.9.59,21.81.32c6.85-.18,13.69-.53,20.5-1.31a180.1,180.1,0,0,0,20.38-3.4c7.19-1.68,14.27-3.84,21.31-6,4.57-1.42,9.07-3.12,13.55-4.8,2.35-.88,4.66-1.81,7-2.8a34.14,34.14,0,0,0,4.17-2.25l.78-.47a3.91,3.91,0,0,0,.59-.56l.73-.69c.34-.32.67-.67,1-1l.8-1.34a4.4,4.4,0,0,0,.83-2,4.49,4.49,0,0,0-.31-2.26,4.34,4.34,0,0,0-3.46-2.62,13.42,13.42,0,0,0-3,0l-1.44.28a16.75,16.75,0,0,0-3.42,1.14c-1.63.7-3.26,1.4-4.9,2.06-3.16,1.27-6.37,2.4-9.57,3.56-6.43,2.33-13,4.34-19.51,6.29l-2.52.73a217.62,217.62,0,0,1-40.53,6.38c-4.7.31-9.41.43-14.11.48a329.74,329.74,0,0,1-40.08-2.74q-5.41-.69-10.77-1.69c-3.17-.58-6.29-1.37-9.4-2.18q-4.92-1.32-9.78-2.8c-3.37-1-6.71-2.12-10-3.2-6.54-2.13-13.11-4.16-19.57-6.49-4.41-1.59-8.79-3.2-13.25-4.63q-3.64-1.17-7.3-2.23a40.24,40.24,0,0,1-6.88-2.29.31.31,0,0,0-.18,0,.45.45,0,0,0-.24.79Zm66.18,20.62,1,.25-1-.25Z"/><path class="cls-8" d="M243.86,232.86l-1.55.07a18,18,0,0,0-2.82.46c-1.77.37-3.53.86-5.29,1.27-3.38.78-6.86,1.2-10.29,1.66s-7.15.89-10.73,1.23-7.16.54-10.74.74c-4.17.22-8.34.28-12.51.31q-10.41,0-20.8-.23c-3.81-.08-7.61-.17-11.41-.34s-7.43-.41-11.14-.65c-1.85-.11-3.71-.18-5.56-.3a57.58,57.58,0,0,1-6.14-.79c-.68-.12-.89.87-.3,1.13,3.57,1.58,7,3.43,10.51,5.15.29.14.61.22.91.33l1.76.65c.67.24,1.32.47,2,.67,2,.58,4,1.16,6,1.64,1.83.44,3.66.87,5.51,1.23s3.77.7,5.66,1c3.51.56,7.05,1,10.6,1.33q5.82.48,11.65.68c3.94.14,7.89.12,11.84.1,3.48,0,7-.09,10.47-.3,3.7-.23,7.38-.6,11.06-1,4-.45,8-.93,11.88-1.7,2.64-.53,5.22-1.26,7.8-2,.42-.13.84-.34,1.24-.5a12.47,12.47,0,0,0,2.55-1.29l1.27-.87.55-.37c.24-.23.47-.47.7-.71l.7-.71a4.23,4.23,0,0,0,1.31-1.76,4.17,4.17,0,0,0,.28-2.18,4.33,4.33,0,0,0-3.72-3.7,23.66,23.66,0,0,0-2.77-.22Z"/><path class="cls-8" d="M292.33,196.89l-.55.14a12.84,12.84,0,0,0-1.49.41,8.45,8.45,0,0,0-1.59,1,12.26,12.26,0,0,0-1.66,1.64c-.14.15-.29.3-.43.46-.55.55-1.1,1.1-1.67,1.62-.8.74-1.65,1.42-2.5,2.11-1.54,1.25-3.1,2.49-4.73,3.62-3.3,2.29-6.55,4.68-10,6.78-2.2,1.26-4.45,2.45-6.74,3.54-2.7,1.28-5.47,2.33-8.25,3.4-5.32,2.05-10.63,4.15-16,6.13-4.64,1.71-9.29,3.45-14,4.82-2.3.59-4.59,1.2-6.89,1.76-2.51.6-5,1.11-7.55,1.68s-5.17,1.2-7.74,1.84c-1.28.32-2.55.68-3.82,1a17.92,17.92,0,0,0-3.46,1.2h.08a.42.42,0,0,0-.14.83,5.12,5.12,0,0,1,.53.25,6.59,6.59,0,0,0,1,.36,15.24,15.24,0,0,0,2.41.44c1.41.16,2.83.24,4.25.31,3.1.15,6.22.11,9.32,0,1.48,0,3-.22,4.44-.35s2.73-.26,4.1-.43c3-.36,6-.84,9-1.44,3.27-.67,6.48-1.62,9.66-2.6,2.73-.84,5.41-1.79,8.1-2.74s5.5-2,8.25-3,5.48-2,8.17-3.07a75.46,75.46,0,0,0,7.77-3.68c2.72-1.49,5.35-3.15,7.95-4.84,1.2-.79,2.38-1.6,3.57-2.41s2.45-1.62,3.63-2.49a58,58,0,0,0,6.32-5.28c.84-.82,1.68-1.65,2.5-2.48a19.46,19.46,0,0,0,2.06-2.3,5.19,5.19,0,0,0,.81-1.61l.12-.41.3-1.13c0-.27,0-.53,0-.8v-1a3.89,3.89,0,0,0-.8-1.89,3.73,3.73,0,0,0-2.52-1.42c-.37,0-.89-.07-1.32-.07a2.12,2.12,0,0,0-.53,0Z"/><path class="cls-10" d="M27.26,157.1a.6.6,0,0,0-.48.37,3.88,3.88,0,0,0,.46,2.94c.38.82.85,1.61,1.29,2.4l.78,1.39a2.86,2.86,0,0,0-.88,1.15,3.31,3.31,0,0,0-.13,1.87,12.35,12.35,0,0,0,1.79,3.86c.46.75.94,1.5,1.45,2.22.68,1,1.36,1.9,2.06,2.84.65,1.39,1.36,2.75,2.09,4.11a50.38,50.38,0,0,0,3.37,5.25c1,1.41,2,2.82,3.16,4.14.17.2.33.4.51.59s.34.34.52.5a3.91,3.91,0,0,0,.77.5,2,2,0,0,0,1.31.1c.14,0,.28,0,.43-.06.34-.07.69-.1,1-.18a7.88,7.88,0,0,0,1.05-.31,5.92,5.92,0,0,0,.94-.55c.63-.43,1.26-.86,1.87-1.32a9.35,9.35,0,0,0,1.15-1.12c.1-.1.2-.2.29-.31l.2-.28a3.65,3.65,0,0,0,.49-.74,2.4,2.4,0,0,0,0-1.84,2.08,2.08,0,0,0-.55-.83,3.72,3.72,0,0,0-1.27-.95l-.06,0h0c-.14-.2-.31-.39-.46-.59s-.39-.51-.56-.78-.49-.65-.72-1c-.52-.72-1.11-1.39-1.67-2.07s-.89-1.07-1.32-1.63A20,20,0,0,0,44.49,175q-1-1-1.83-2c-.55-.66-1-1.36-1.57-2l-1.66-2.1a82,82,0,0,0-5.32-6.3c-1-1-2-2-2.95-2.95A12.58,12.58,0,0,0,29.47,158a3.8,3.8,0,0,0-2.07-.93Z"/><path class="cls-10" d="M38,121.18a2.12,2.12,0,0,0-1.08,1,15.42,15.42,0,0,0-.85,1.61c-.43.86-.88,1.73-1.23,2.63-.72,1.92-1.4,3.86-2,5.82-.36,1.24-.66,2.5-1,3.75-.23.92-.44,1.85-.62,2.79q-.57,3.07-.85,6.19c-.18,2.08-.36,4.17-.4,6.27a48.26,48.26,0,0,0,.35,6.9,47.77,47.77,0,0,0,1.47,6.71,46.17,46.17,0,0,0,2,5.65,51,51,0,0,0,3.1,6,39.2,39.2,0,0,0,2.37,3.6c.17.24.35.47.53.7A13,13,0,0,0,41,182a4.83,4.83,0,0,0,1.2.75l.4.2.89.23.38.1a2.21,2.21,0,0,0,1.73-.47,2.24,2.24,0,0,0,.85-1.52,7,7,0,0,0,0-1.37l-.12-.65a6.6,6.6,0,0,0-1-2.38c-.43-.66-.89-1.31-1.34-2-.75-1.08-1.42-2.19-2.09-3.32-.43-.72-.83-1.46-1.21-2.21s-.8-1.72-1.16-2.6a45.76,45.76,0,0,1-1.64-4.92,34.56,34.56,0,0,1-.94-4.74,49.07,49.07,0,0,1-.3-5.29c0-1.8.09-3.6.19-5.4.12-2.07.26-4.15.48-6.22s.57-4.2.9-6.3.6-4,.89-5.95c.17-1.15.4-2.3.54-3.46a6.57,6.57,0,0,0,0-1.93c-.12-.66-.55-1.45-1.26-1.45a.93.93,0,0,0-.32.05ZM41.45,171l.28.48-.28-.48Z"/><path class="cls-10" d="M32.91,131.9a10,10,0,0,0-1.08,1,13.85,13.85,0,0,0-1.27,1.38,12.71,12.71,0,0,0-.86,1.3,70.79,70.79,0,0,0-3.23,6.39,24.45,24.45,0,0,0-1.19,3.12,27.82,27.82,0,0,0-.86,3.93,26.39,26.39,0,0,0-.16,4.07c0,1,.1,2.08.2,3.12a35,35,0,0,0,.65,4,45,45,0,0,0,1.11,4.44,28.32,28.32,0,0,0,1.53,3.79,19.84,19.84,0,0,0,1.3,2.4l.39.58a3.7,3.7,0,0,0,.8.78l.48.38a5.83,5.83,0,0,0,1.41.71,2.62,2.62,0,0,0,2,0,2.62,2.62,0,0,0,1.59-2.09,8.48,8.48,0,0,0,0-1.51l-.11-.64a7.4,7.4,0,0,0-.6-1.81c-.31-.74-.7-1.44-1-2.17a31.91,31.91,0,0,1-1.42-3.74A49,49,0,0,1,31.25,151a32.54,32.54,0,0,1,.23-3.4c.17-1.3.47-2.6.77-3.88.28-1,.55-2.09.82-3.14s.56-2.08.76-3.13.35-2.07.55-3.09c.09-.47.23-.93.32-1.4s.2-1.21-.36-1.5a.63.63,0,0,0-.27-.06,2.21,2.21,0,0,0-1.16.55Zm-.68,11.82-.06.24.06-.24Z"/><path class="cls-10" d="M24.6,142.77a8,8,0,0,0-.84.09,13.9,13.9,0,0,0-2.54.72c-1.32.5-2.58,1.16-3.91,1.62-1.15.24-2.31.37-3.45.67a12.42,12.42,0,0,0-1.93.62,5.75,5.75,0,0,0-2.16,1.69,5.2,5.2,0,0,0-1,2.42,6.14,6.14,0,0,0,.33,2.72,10.33,10.33,0,0,0,4,4.4,44.34,44.34,0,0,0,4.07,2.45c1,.56,2,1.11,3,1.65l1,.55a9.24,9.24,0,0,0,1.49.71,5.24,5.24,0,0,0,2.6.33,5.14,5.14,0,0,0,2.5-1.07,5.06,5.06,0,0,0,1.57-2.09l.33-1.27a5.12,5.12,0,0,0-.36-2.65,4,4,0,0,0-.34-.8,11.25,11.25,0,0,0,.82-1.43,5,5,0,0,0,.39-1.78,5.48,5.48,0,0,0-.39-2.88,5.59,5.59,0,0,0-1.8-2.28l-.22-.13a5.09,5.09,0,0,0-1.38-.73,8.57,8.57,0,0,0,.09-1c0-.65-.08-1.3-.12-2a.77.77,0,0,0-.66-.66l-.22,0c-.3,0-.56.1-.87.13Z"/><path class="cls-10" d="M6.45,11.51c-1.83.6-2.86,2.64-3.43,4.34a13.56,13.56,0,0,0-.58,5.52,9.5,9.5,0,0,0,.33,1.83,18.17,18.17,0,0,0,.94,2.87A24.4,24.4,0,0,0,6.1,30.25a27.3,27.3,0,0,0,3.55,3.9c1,1,2.11,1.89,3.2,2.79C15,38.68,17.18,40.37,19.42,42A76.7,76.7,0,0,0,32,49.44c2.12,1,4.2,2,6.25,3.11s4.12,2.13,6.15,3.24c.9.51,1.81,1,2.74,1.48.74.36,1.49.72,2.22,1.11a12.76,12.76,0,0,0,1.14.64l.66.3a8,8,0,0,0,1.2.4,1.91,1.91,0,0,0,1.83-.27,1.82,1.82,0,0,0,.55-2.15,13.7,13.7,0,0,0-1.08-1.71c-.21-.26-.41-.51-.64-.75-.49-.52-1-1.05-1.44-1.58s-.94-1-1.44-1.51a15.82,15.82,0,0,0-2.35-1.89q-3.61-2.45-7.21-4.93c-4.72-3.29-9.6-6.34-14.37-9.58a95.42,95.42,0,0,1-10.91-8.62,24.24,24.24,0,0,1-3.13-3.8c-.31-.57-.6-1.15-.86-1.74a14,14,0,0,1-.49-1.42,16.36,16.36,0,0,1-.46-3.19c0-.59,0-1.18-.08-1.77a5.71,5.71,0,0,0-.35-1.48,4.6,4.6,0,0,0-.59-1.09,2.45,2.45,0,0,0-1-.74,2.18,2.18,0,0,0-.85-.17,3.37,3.37,0,0,0-1,.18Z"/><path class="cls-10" d="M31.14,51.24a7.24,7.24,0,0,0-1.2.37,8.39,8.39,0,0,0-1.78,1A6.55,6.55,0,0,0,26.73,54a4.49,4.49,0,0,0-.37.59A8.89,8.89,0,0,0,25.65,56a8.18,8.18,0,0,0-.43,4.13,5.44,5.44,0,0,0,.17.78,15.09,15.09,0,0,0,.72,2.25,14.31,14.31,0,0,0,3.5,4.46A15.89,15.89,0,0,0,33,69.85a23.54,23.54,0,0,0,3.2,1.44,16.2,16.2,0,0,0,2.25.59c.58.12,1.16.23,1.75.32a20.74,20.74,0,0,0,3.43.23c1,0,2.06,0,3.09-.08a2,2,0,0,0,.92-3.54c-1.27-.75-2.54-1.5-3.86-2.14-.9-.45-1.81-.89-2.72-1.32-1.58-.74-3.2-1.36-4.74-2.15a18.54,18.54,0,0,1-2.45-1.76A12,12,0,0,1,32.67,60a8.75,8.75,0,0,1-.49-1.23c0-.21-.07-.43-.09-.65a4.8,4.8,0,0,1,.09-.75,5,5,0,0,1,.26-.64,6.46,6.46,0,0,1,.44-.59c.63-.6,1.31-1.15,1.89-1.8l-.11.12c.15-.17.3-.34.44-.52s.16-.26.24-.38a.6.6,0,0,0,.16-.33c0-.33-.25-.63-.42-.9a2.46,2.46,0,0,0-.69-.59,3.77,3.77,0,0,0-.83-.41,4.24,4.24,0,0,0-1.27-.22h-.13a5,5,0,0,0-1,.09Zm4.16,2.4,0,0-.09.06.13-.09Z"/><path class="cls-10" d="M51,29a6.51,6.51,0,0,0-2.27,3.91,9.66,9.66,0,0,0-.14,2.79,15.86,15.86,0,0,0,.46,2.64c.31,1.14.62,2.27,1,3.37.65,1.67,1.47,3.26,2.26,4.86.43.87.87,1.74,1.35,2.59A20.81,20.81,0,0,0,54.88,51a5.11,5.11,0,0,0,.57.57,8.69,8.69,0,0,0,.76.75l.76.49a2.86,2.86,0,0,0,2.73.32A2.75,2.75,0,0,0,61.35,51c.06-.3.13-.6.19-.9a4.78,4.78,0,0,0,0-1.07,4,4,0,0,0,0-.85,21.39,21.39,0,0,0-.77-2.74c-.2-.56-.5-1.1-.75-1.63l-.76-1.53c-.52-1-1.06-2-1.53-3.08s-.79-1.88-1.11-2.85a13.92,13.92,0,0,1-.39-2.41,8.78,8.78,0,0,1,.1-.88c.22-.63.47-1.23.67-1.87a2.51,2.51,0,0,0,0-2.38,2.92,2.92,0,0,0-2.12-1,3.1,3.1,0,0,0-.43,0A5.81,5.81,0,0,0,51,29Z"/><path class="cls-10" d="M326.83,13.73a4.64,4.64,0,0,0-1.58,1c-.21.2-.42.41-.62.63-1.95,1.94-4,3.75-6.08,5.56a50.66,50.66,0,0,1-6.87,4.94c-4.25,2.38-8.75,4.31-13,6.71a48,48,0,0,0-6.62,4.37c-2.28,1.85-4.51,3.93-5.67,6.68a9,9,0,0,0-.34,1.31,2.26,2.26,0,0,0,0,.45,3.68,3.68,0,0,0,.19,1.47A2.31,2.31,0,0,0,288,48.51c1.45.21,2.84-.75,3.92-1.6.92-.73,1.82-1.49,2.72-2.24s1.87-1.5,2.85-2.2c.69-.5,1.42-.94,2.15-1.38,4.25-2.44,8.85-4.18,13.25-6.33a69.69,69.69,0,0,0,7.48-4.23,50.93,50.93,0,0,0,5.76-4.6c1.11-1,2.14-2.08,3.15-3.19.42-.45.82-.92,1.24-1.37.19-.19.38-.38.56-.59a3.66,3.66,0,0,0,.39-.58,4.16,4.16,0,0,0,.79-2,9.6,9.6,0,0,0,0-1.42,3.85,3.85,0,0,0-1.54-2.62,3.92,3.92,0,0,0-2.33-.77,4.1,4.1,0,0,0-1.54.3Zm-26.6,27,0,0,0,0Z"/><path class="cls-10" d="M286.83,61.57c-1.65,0-3.29.18-4.93.34a28.24,28.24,0,0,0-5.74,1.23,22.08,22.08,0,0,0-5.34,2.73c-.84.55-1.65,1.12-2.46,1.72s-1.36,1.17-2.11,1.67a17.24,17.24,0,0,0-1.62,1,12.21,12.21,0,0,0-1.93,1.94c-.75.89-1.44,1.83-2.15,2.75a44.28,44.28,0,0,0-3.71,6.08c-.5.88-1,1.76-1.46,2.67s-.86,1.82-1.33,2.71a49.89,49.89,0,0,0-2.33,5.1,63.77,63.77,0,0,0-2.21,6.17,40.13,40.13,0,0,0-1,4.34c-.17,1.05-.31,2.1-.44,3.16a62.15,62.15,0,0,0-.49,6.25,70.82,70.82,0,0,0,.23,7.28c.09,1.1.26,2.2.45,3.29a39.24,39.24,0,0,0,1,4c.63,2.16,1.44,4.23,2.27,6.32s1.65,4,2.52,6c.4.9.85,1.78,1.31,2.65.61,1.14,1.21,2.29,1.92,3.37a22.38,22.38,0,0,0,1.88,2.34c.6.68,1.19,1.35,1.8,2a25.29,25.29,0,0,0,4.73,4,52.56,52.56,0,0,0,4.68,2.65,32.86,32.86,0,0,0,10.22,3.38,16.92,16.92,0,0,0,2.56.23,14.86,14.86,0,0,0,1.89-.07,4.3,4.3,0,0,0,2.27-.95,2.75,2.75,0,0,0,.95-1.69,2.68,2.68,0,0,0-.53-1.93,4.8,4.8,0,0,0-2.36-1.56l-2-.68c-1.14-.39-2.27-.78-3.4-1.19s-2.56-.89-3.81-1.41c-1-.41-2-.88-2.89-1.38l-.68-.38c-1-.56-1.89-1.15-2.8-1.77a18.69,18.69,0,0,1-2.22-1.84c-.75-.76-1.44-1.56-2.13-2.36-.41-.46-.83-.9-1.22-1.38a13.27,13.27,0,0,1-.87-1.21,70,70,0,0,1-3.61-7.94c-.61-1.55-1.25-3.08-1.85-4.63-.51-1.3-.91-2.63-1.29-4a34.76,34.76,0,0,1-1-7.93c0-1.09,0-2.17,0-3.26.05-1.28.18-2.57.3-3.85s.23-2.36.39-3.54a35.42,35.42,0,0,1,.72-3.55q.68-2.39,1.56-4.69c.58-1.51,1.16-3,1.88-4.46.32-.64.66-1.27,1-1.9s.69-1.43,1.05-2.14c.69-1.38,1.44-2.73,2.19-4.08.34-.6.69-1.19,1.08-1.76.56-.84,1.16-1.64,1.76-2.45s1.23-1.69,1.84-2.53c.36-.5.72-1,1.06-1.5s.48-.75.76-1.1a27.08,27.08,0,0,1,4-2.87,23.9,23.9,0,0,1,4.14-1.91c1.3-.43,2.62-.8,3.94-1.17a27.48,27.48,0,0,1,6.44-.84c1.89,0,3.77.06,5.66.12s3.79.09,5.68.29a38.59,38.59,0,0,1,5.35.92c.87.21,1.73.42,2.61.57.44.06.89.09,1.33.11a3.26,3.26,0,0,0,1.8-.3,1,1,0,0,0,.61-1.07,2.5,2.5,0,0,0-.25-.71,4.37,4.37,0,0,0-.83-1,10.44,10.44,0,0,0-1.14-1,12.47,12.47,0,0,0-3.14-1.62,29.94,29.94,0,0,0-6.63-1.37c-2.19-.21-4.41-.3-6.62-.37-2-.07-4-.15-6-.15Zm-2.89,6.23-.3.09.3-.09Zm-8.05,2.87-.28.17.28-.17Zm-20.27,43.5v0Z"/><path class="cls-11" d="M300.6,145.38a8.83,8.83,0,0,0-1.26.41,9.72,9.72,0,0,0-1.3.74,23.36,23.36,0,0,0-3,2.3,39.11,39.11,0,0,0-5.46,6.11,36.45,36.45,0,0,0-2.35,3.81,23.14,23.14,0,0,0-1.6,3.33,16.8,16.8,0,0,0-1,4.37,17.1,17.1,0,0,0,.22,4.23,10.71,10.71,0,0,0,.59,2.24,11.46,11.46,0,0,0,.81,1.5,8.83,8.83,0,0,0,1.82,2.09,18.08,18.08,0,0,0,3.61,2.45,32.15,32.15,0,0,0,7.8,2.8,46,46,0,0,0,7.91,1.24,80.21,80.21,0,0,0,9,.07,139.06,139.06,0,0,0,14.68-1.65c2.52-.38,5-.75,7.55-1.19a83.07,83.07,0,0,0,8.53-2c1.26-.37,2.51-.77,3.76-1.21a25.9,25.9,0,0,0,3.5-1.42,29.5,29.5,0,0,0,3.87-2.47,15.16,15.16,0,0,0,1.54-1.33,7.35,7.35,0,0,0,2.86-.74,4.69,4.69,0,0,0,2.71-4.72,4,4,0,0,0-3.47-3.5c-2.13-.23-4,.7-5.74,1.73l-1.39.79c-.84.48-1.7.85-2.57,1.26-1.08.49-2.15,1-3.27,1.38-2,.73-4.05,1.43-6.11,2-1,.27-2.06.54-3.1.77-1.24.28-2.49.5-3.75.7-2.56.41-5.11.87-7.67,1.27-4.82.75-9.65,1.48-14.52,1.81-1.15.08-2.3.1-3.45.11a54.36,54.36,0,0,1-5.56-.31,40.41,40.41,0,0,1-5.25-1c-1-.28-1.95-.59-2.9-.94a21.53,21.53,0,0,1-2.63-1.21,15,15,0,0,1-1.66-1.17,8.27,8.27,0,0,1-.51-.66c-.1-.21-.2-.42-.28-.64a13.67,13.67,0,0,1-.28-2.12,12.24,12.24,0,0,1,.23-1.61,28.36,28.36,0,0,1,2.24-5,31.47,31.47,0,0,1,2.19-3.22c.88-1.14,1.85-2.22,2.83-3.28a40,40,0,0,0,2.6-3.06,9.19,9.19,0,0,0,1.36-2.22,4.66,4.66,0,0,0,.27-1.1,1.66,1.66,0,0,0-.56-1.48,1.9,1.9,0,0,0-.91-.36h-.41a2.61,2.61,0,0,0-.62.06Z"/><path class="cls-11" d="M285.17,163a8,8,0,0,0-1.51,1.63,15.78,15.78,0,0,0-1.93,3.74c-.21.55-.38,1.12-.55,1.69a13.92,13.92,0,0,0-.6,2.63,10.17,10.17,0,0,0,.85,5.1c.24.53.54,1,.79,1.58a15,15,0,0,0,1.28,2.2,9,9,0,0,0,3.46,2.55,10.12,10.12,0,0,0,1.87.66,34.24,34.24,0,0,0,4.92,1c1.29.13,2.59.23,3.88.24a38.08,38.08,0,0,0,5.34-.3c.82-.1,1.63-.22,2.45-.36a18.73,18.73,0,0,0,2-.59,15.25,15.25,0,0,0,1.77-.72,3,3,0,0,0,0-5.46l-1.08-.43a12.33,12.33,0,0,0-1.3-.39l-1.36-.35a9,9,0,0,0-1.16-.16l-1.16-.11c-1.43-.12-2.86-.33-4.29-.44s-2.82-.2-4.22-.34a29.74,29.74,0,0,1-3.87-.64,14.19,14.19,0,0,1-2-.74c-.22-.13-.43-.28-.64-.43l-.22-.29a11.36,11.36,0,0,1-.57-1.35,9.31,9.31,0,0,1-.14-1.06c0-.66.14-1.31.24-2l.36-2.54c.12-.77.21-1.54.26-2.32s.06-2.38-1-2.63a1.24,1.24,0,0,0-.27,0,2.91,2.91,0,0,0-1.58.66Zm6.25,12.89.1,0-.1,0Z"/><path class="cls-12" d="M311.89,103c-.35.2-.64.37-.91.55a8.63,8.63,0,0,0-2,1.48,10.84,10.84,0,0,0-1.79,2.21,15.91,15.91,0,0,0-1.1,2.23,17.6,17.6,0,0,0-.83,3.21,17.24,17.24,0,0,0-.05,5.27,18.34,18.34,0,0,0,.79,3.25,7.59,7.59,0,0,0,.56,1.19c.34.67.78,1.35,1.19,2a16.89,16.89,0,0,0,3.6,3.85,15.51,15.51,0,0,0,2.09,1.3,7.56,7.56,0,0,0,.9.45,12.86,12.86,0,0,0,2.13.67,8.09,8.09,0,0,0,2.21.17,9.36,9.36,0,0,0,2.6-.55l.41-.2a13.76,13.76,0,0,0,1.47-.9l.37-.32,1.2-1.24c.22-.26.43-.52.63-.8a14.56,14.56,0,0,0,1.43-2.67,16.14,16.14,0,0,0,.82-2.89,11.92,11.92,0,0,0,.27-2.23,18.16,18.16,0,0,0-.42-4.77,18.49,18.49,0,0,0-1.76-5,18.15,18.15,0,0,0-1.86-2.8,11.83,11.83,0,0,0-2.75-2.39,11.43,11.43,0,0,0-5.15-1.82q-.37,0-.75,0a6.64,6.64,0,0,0-3.29.79Z"/><path class="cls-13" d="M272.27,75.34a3,3,0,0,0-1,.26,4.35,4.35,0,0,0-.79.36,18.62,18.62,0,0,0-3.06,2.24,32.22,32.22,0,0,0-2.82,3,19,19,0,0,0-2.1,2.79,36.47,36.47,0,0,0-2.15,4,29.82,29.82,0,0,0-1.26,3.42q-.64,2.19-1.17,4.41a33.14,33.14,0,0,0-.71,3.57,56.77,56.77,0,0,0,.43,16.15,79.83,79.83,0,0,0,1.86,8.52,46.31,46.31,0,0,0,2.46,6.63,30.58,30.58,0,0,0,1.62,3.11c.72,1.26,1.47,2.5,2.27,3.72a47.06,47.06,0,0,0,4.31,5.82,36.33,36.33,0,0,0,5.88,4.9c1,.7,2,1.38,3,2a35.74,35.74,0,0,0,3.77,2,23.26,23.26,0,0,0,2.81,1,11.65,11.65,0,0,0,4.38.56,9,9,0,0,0,1.16-.15,6,6,0,0,0,2.51-.87,3.53,3.53,0,0,0,.94-1.3,2.49,2.49,0,0,0,0-1.95,6.34,6.34,0,0,0-.44-.72,2.74,2.74,0,0,0-1.19-.91,6,6,0,0,0-1-.27l-.35,0-1.24-.43c-.64-.23-1.31-.39-1.95-.62a30.61,30.61,0,0,1-3.8-1.67,48.68,48.68,0,0,1-4.11-2.72,44.23,44.23,0,0,1-3.91-3.06,30.88,30.88,0,0,1-4-5.35,54.59,54.59,0,0,1-3.23-6.33,72.52,72.52,0,0,1-2.55-7.35,74.44,74.44,0,0,1-1.36-7.85,64.18,64.18,0,0,1-.62-8,43.51,43.51,0,0,1,.41-5.58,56.35,56.35,0,0,1,1.15-5.58c.34-1.22.71-2.44,1.12-3.64s.93-2.46,1.38-3.69a31.84,31.84,0,0,1,1.52-3.62c.54-1,1-2.07,1.57-3.08.35-.57.73-1.13,1.08-1.7s.86-1.23.47-1.76a1,1,0,0,0-.88-.3Zm-5.66,17a2.5,2.5,0,0,1-.07.26,2.5,2.5,0,0,0,.07-.26Z"/><path class="cls-14" d="M311.48,146.52a1.37,1.37,0,0,0-.28-.05,11.23,11.23,0,0,0-1.16,0,7.35,7.35,0,0,0-2.25.6,5.66,5.66,0,0,0-1.1.62,7.62,7.62,0,0,0-.87.62,7.52,7.52,0,0,0-1.53,1.66c-.22.37-.43.73-.63,1.11a5.44,5.44,0,0,0-.48,1.37,4.6,4.6,0,0,0-.11.83,3.86,3.86,0,0,0,.06.9,5.08,5.08,0,0,0,.26.9,4.16,4.16,0,0,0,.42.75l.24.34a9.24,9.24,0,0,0,.9.87,10.1,10.1,0,0,0,2,1.38,14.82,14.82,0,0,0,1.82.81,29.47,29.47,0,0,0,8.66,1.76c1.56.05,3.14,0,4.7-.07,1.34-.06,2.69-.11,4-.19a29.46,29.46,0,0,0,3.86-.46,24.33,24.33,0,0,0,2.37-.63,8.44,8.44,0,0,0,2.17-1,5,5,0,0,0,.62-.6,4.55,4.55,0,0,0,.86-1,3.4,3.4,0,0,0,.34-.69,2.23,2.23,0,0,0,.14-.62c0-.22,0-.43,0-.65a3.09,3.09,0,0,0-.22-.83,1.33,1.33,0,0,0-.15-.32,4.87,4.87,0,0,0-.46-.75,6.75,6.75,0,0,0-1-1.05,14.9,14.9,0,0,0-3.82-2.22,30.72,30.72,0,0,0-3.75-1.29c-1.47-.41-3-.76-4.47-1s-2.8-.49-4.22-.67-2.73-.38-4.1-.48c-.31,0-.62,0-.93,0a14.71,14.71,0,0,0-1.88.11Zm13.36,5.91.13,0h0l-.12,0Zm-18,1.34v0l.08.11-.07-.08ZM333,154.94l0,.07h0l0-.07Zm-1.16.32.12.1h0l-.12-.1Zm.88.36Z"/><path class="cls-15" d="M180,4.57c-3.12.21-6.21.6-9.31,1.08s-6.38,1.11-9.53,1.86c-3.33.8-6.64,1.69-10,2.53s-6.62,1.79-9.92,2.72c-1.59.42-3.19.83-4.76,1.29s-3.06,1-4.57,1.46a85.54,85.54,0,0,0-10,4.07c-3.08,1.49-6,3.26-9.06,4.85-3.35,1.75-6.72,3.49-9.93,5.49-1.71,1.08-3.35,2.27-5,3.46s-3.46,2.61-5.13,4A116.67,116.67,0,0,0,83.19,47c-2.31,2.35-4.65,4.68-6.91,7.08S72,58.78,70,61.24s-4.1,5.08-6.13,7.64q-1.51,1.92-3.08,3.81c-1,1.24-2.09,2.44-3.11,3.69a102.49,102.49,0,0,0-6.2,8.46c-2.19,3.32-4.1,6.8-6,10.32-1.65,3.15-3.11,6.4-4.55,9.64-1.35,3-2.71,6.08-4,9.15a124.58,124.58,0,0,0-4.38,12.14A58.56,58.56,0,0,0,31,132.48a16.47,16.47,0,0,0-.32,3.43,12.14,12.14,0,0,0,.13,1.48c.08.56.31,1.11.4,1.67,0,.16.17.36.36.36h0a.45.45,0,0,0,.42-.29l0,0,.06-.15c.48-.62,1.05-1.17,1.53-1.8s.93-1.25,1.38-1.9c.91-1.34,1.69-2.76,2.49-4.17,1.77-3.12,3.45-6.28,5.1-9.47,3-5.78,6-11.54,9.16-17.23,1.69-3,3.38-5.93,5.15-8.84a81.65,81.65,0,0,1,6.2-8.81c2.07-2.59,4.36-5,6.6-7.45s4.35-4.91,6.48-7.41c3.16-3.71,6.45-7.29,9.82-10.81,1.57-1.6,3.16-3.16,4.74-4.74,2-1.94,3.82-3.94,5.71-5.93a75,75,0,0,1,6.79-5.92c2.33-1.81,4.74-3.54,7.24-5.12,2.2-1.26,4.46-2.42,6.72-3.58,2.78-1.44,5.5-3,8.31-4.38a94.85,94.85,0,0,1,16.27-6.33q4.77-1.25,9.52-2.54l-1.59.43c3.09-.84,6.21-1.58,9.3-2.39s6.28-1.52,9.46-2.11c3-.56,6-1,9-1.37,1.49-.2,3-.39,4.47-.53s2.9-.19,4.36-.21c3.06.06,6.1.43,9.16.68s6,.54,9.05.68c6.06.29,12.09.84,18.12,1.49a54.87,54.87,0,0,1,6.74,1.16c2.85.82,5.65,1.82,8.49,2.7,1.43.44,2.86.87,4.29,1.33,1.63.52,3.22,1.16,4.82,1.78,3,1.16,6,2.19,9,3.24,1.34.47,2.65,1,4,1.62s2.41,1,3.63,1.48c1.42.54,2.81,1.17,4.22,1.73s3.05,1.1,4.51,1.81A21.54,21.54,0,0,0,276,37.49c1,.29,2,.62,3.08.9l-.5-.13a8.81,8.81,0,0,0,3.24.59A3,3,0,0,0,284.14,37a3.09,3.09,0,0,0-.42-3,4.67,4.67,0,0,0-.86-.86c-.24-.28-.46-.57-.71-.83A15.38,15.38,0,0,0,280,30.56l-.93-.61a12.78,12.78,0,0,1-1.1-.84c-.42-.32-.89-.58-1.33-.86l-1.41-.93c-1.24-.82-2.45-1.63-3.75-2.35-.93-.51-1.86-1-2.8-1.47s-1.77-.89-2.68-1.29c-.69-.31-1.37-.63-2.05-1-1.27-.74-2.54-1.48-3.87-2.11S257.37,18,256,17.44c-3-1.1-5.87-2.31-8.84-3.36-2.65-.94-5.37-1.66-8-2.54-3.12-1-6.28-1.93-9.46-2.77a51.48,51.48,0,0,0-5.88-1.32c-1.46-.22-2.91-.42-4.38-.57-3-.32-6-.63-8.95-.79-3.18-.17-6.36-.32-9.53-.58s-6.09-.56-9.13-.84c-1.74-.16-3.48-.3-5.23-.31q-3.28,0-6.55.21Zm-37.72,7.92-.5.13.5-.13Z"/><path class="cls-15" d="M291.75,45.13A1.86,1.86,0,0,0,290.42,47a4.14,4.14,0,0,0,.86,2.06,13.87,13.87,0,0,0,1.58,1.67,23.83,23.83,0,0,0,2.71,2.09c.91.65,1.83,1.29,2.7,2s1.7,1.39,2.5,2.13c.53.54,1,1.09,1.56,1.64a7.64,7.64,0,0,0,1.53,1.31,5.45,5.45,0,0,0,1.07.56,10.35,10.35,0,0,0,1.35.37,1.91,1.91,0,0,0,1.49-.42,2.12,2.12,0,0,0,.74-1.31,4.64,4.64,0,0,0,.19-1.92c0-.19-.07-.37-.11-.55a5.86,5.86,0,0,0-.48-1.41,10.55,10.55,0,0,0-.74-1.23,6,6,0,0,0-.37-.51,10.75,10.75,0,0,0-.82-1,30.13,30.13,0,0,0-4.62-3.89c-.61-.44-1.25-.86-1.88-1.27a23.1,23.1,0,0,0-2.79-1.56,8.53,8.53,0,0,0-1.18-.47,7.3,7.3,0,0,0-1.78-.41l-.51,0a4.65,4.65,0,0,0-1.67.28Z"/><path class="cls-15" d="M321.17,4.84a16.11,16.11,0,0,0-2.3.2,35.31,35.31,0,0,0-13.3,5.35,40.45,40.45,0,0,0-6.36,5.31c-2.26,2.29-4.45,4.64-6.51,7.11-1.29,1.54-2.42,3.2-3.62,4.81s-2.36,3.15-3.59,4.68-2.36,2.85-3.47,4.33a12.34,12.34,0,0,0-.93,1.56,7.16,7.16,0,0,0-.5,1.09,9,9,0,0,0-.39,1.32,1.24,1.24,0,0,0,.26,1.24,2.44,2.44,0,0,0,1.42.39,7.33,7.33,0,0,0,2.62-.41,16.73,16.73,0,0,0,4.24-2.24,38.28,38.28,0,0,0,6.13-5.6l-.51.52.63-.65.14-.14-.1.1c.56-.57,1.11-1.13,1.69-1.68.75-.71,1.53-1.39,2.29-2.09,1.59-1.46,3.19-2.91,4.73-4.42,1.37-1.32,2.71-2.65,4.15-3.88a41.48,41.48,0,0,1,4.75-3.5c1.46-.81,3-1.53,4.47-2.26a32.64,32.64,0,0,1,4.52-1.83l.89-.19c.34-.07.66-.15,1-.24a5.62,5.62,0,0,0,1.55-.5,5.43,5.43,0,0,0,1.86-1.5,3.71,3.71,0,0,0,.45-3.7,4.07,4.07,0,0,0-1.45-2l-.36-.23A4.55,4.55,0,0,0,323.5,5,6.84,6.84,0,0,0,322,4.82l-.84,0ZM295,33.85l-.12.13.16-.17,0,0Z"/><path class="cls-15" d="M10.15,14.47a7.6,7.6,0,0,0-3.92,1.9A7.28,7.28,0,0,0,4.92,18a9.35,9.35,0,0,0-.56,1.09A7.13,7.13,0,0,0,4,20.52a4.91,4.91,0,0,0-.05.86c0,.4,0,.8,0,1.2,0,.2,0,.4.05.6A8.34,8.34,0,0,0,4.39,25c.13.4.27.78.43,1.16a6,6,0,0,0,.84,1.32,2.13,2.13,0,0,0,1.11.75A.34.34,0,0,0,7,28.3H7a.45.45,0,0,0,.43-.23A2.17,2.17,0,0,0,8.15,27a7.32,7.32,0,0,0,.24-.92c0-.29.07-.58.09-.88A26.44,26.44,0,0,1,8.64,22a2.5,2.5,0,0,1,.15-.38,8,8,0,0,1,.61-.8,7,7,0,0,1,.6-.48,5.58,5.58,0,0,1,.67-.28,6.58,6.58,0,0,1,1-.13,10.81,10.81,0,0,1,1.5.2,19.39,19.39,0,0,1,2.67,1c.94.43,1.85.9,2.75,1.39A83.61,83.61,0,0,1,26.68,28c2.84,2.15,5.64,4.38,8.32,6.73,1.37,1.21,2.73,2.43,4.14,3.6s2.63,2.18,4,3.23,2.82,2.2,4.22,3.31,2.58,2.14,4,3.08l1.76,1.21c.31.22.63.44,1,.64l.55.35a11.31,11.31,0,0,0,1.46.67,1.78,1.78,0,0,0,2.08-.58,1.77,1.77,0,0,0,0-2.16c-.22-.33-.41-.69-.65-1l-.51-.64-.74-.87c-.55-.67-1.1-1.34-1.7-2a43.07,43.07,0,0,0-4.36-3.84c-1.35-1.1-2.74-2.15-4.1-3.23s-2.71-2.17-4-3.28-2.77-2.38-4.16-3.56-2.67-2.21-4-3.29S30.91,24.12,29.46,23s-2.66-2-4-3c-1.6-1.07-3.25-2.06-4.94-3A25,25,0,0,0,15.64,15a13.14,13.14,0,0,0-3.88-.64,9.8,9.8,0,0,0-1.61.13Z"/><path class="cls-15" d="M51.34,28a7.16,7.16,0,0,0-1.52.92,6.79,6.79,0,0,0-1.38,1.5A8.06,8.06,0,0,0,47.06,34a8.38,8.38,0,0,0,.06,2.06,6.84,6.84,0,0,0,.27,1.19A14.85,14.85,0,0,0,48.53,40a7.46,7.46,0,0,0,2,2.67.51.51,0,0,0,.59.14c.59-.32.73-1.05.87-1.66a4,4,0,0,0,0-1c0-.27,0-.55,0-.82-.09-1-.19-1.88-.22-2.82a11.35,11.35,0,0,1,.14-1.43,5.83,5.83,0,0,1,.23-.58,7.3,7.3,0,0,1,.52-.72c.11-.1.22-.18.34-.27l.3-.13.13,0a7.18,7.18,0,0,1,.81.12,8.89,8.89,0,0,1,1.11.45,11.93,11.93,0,0,1,1.78,1.3,41.52,41.52,0,0,1,3.12,4.23c1,1.48,2.05,3,3.1,4.41,2.14,2.94,4,6.06,6.31,8.89.58.72,1.17,1.44,1.78,2.13.15.16.29.32.44.47l.79.77a2.66,2.66,0,0,0,.77.44,3.21,3.21,0,0,0,1.81.35,2.79,2.79,0,0,0,.87-.26,2.36,2.36,0,0,0,1-.78c.12-.2.24-.41.35-.62a3.52,3.52,0,0,0-.67-3.58c-.3-.37-.62-.72-.94-1.08-.61-.7-1.2-1.43-1.79-2.16-2.28-2.87-4.26-6-6.35-9-1-1.45-2-2.91-3-4.36-.54-.77-1.07-1.55-1.62-2.31a16.72,16.72,0,0,0-2.33-2.5,12.9,12.9,0,0,0-2.8-1.81,9,9,0,0,0-3.24-.93c-.27,0-.53,0-.8,0a6.85,6.85,0,0,0-2.55.47Zm.39,8.06c0,.06,0,.12,0,.18a1.09,1.09,0,0,1,0-.18Z"/><path class="cls-15" d="M28.56,51.06c-.46.21-.9.47-1.35.72a10.89,10.89,0,0,0-2,1.35,6.27,6.27,0,0,0-1.45,2.11,6.49,6.49,0,0,0-.23.75,7.77,7.77,0,0,0-.36,1.85,10,10,0,0,0,.09,2.32,8.94,8.94,0,0,0,1.27,3.08,16.4,16.4,0,0,0,1.75,2.32A14.73,14.73,0,0,0,29.15,68c.58.39,1.21.72,1.82,1.06a12.67,12.67,0,0,0,1.34.64c.91.37,1.85.67,2.79.95,1.21.37,2.42.71,3.65,1a28.24,28.24,0,0,0,3,.47c3.83.45,7.73.33,11.5,1.19a18.86,18.86,0,0,1,2.38.87c.4.18.8.38,1.2.58l.65.34a7,7,0,0,0,1.42.42,3.56,3.56,0,0,0,3.28-1.4,3.56,3.56,0,0,0-.06-4.31,5.91,5.91,0,0,0-1.08-1A13.84,13.84,0,0,0,59.79,68c-.44-.25-.9-.47-1.36-.69a18.41,18.41,0,0,0-3.7-1.21,31.73,31.73,0,0,0-6.23-.72c-2.06-.07-4.11-.15-6.16-.27a49.92,49.92,0,0,1-6.1-.68l-.45-.1a25.37,25.37,0,0,1-4.53-1.82A17.32,17.32,0,0,1,29,60.9c-.24-.29-.47-.59-.68-.9a5.88,5.88,0,0,1-.33-.78,8.11,8.11,0,0,1-.16-1.39,6.82,6.82,0,0,1,.13-.89,5.54,5.54,0,0,1,.25-.68c.13-.18.26-.36.4-.53a8.3,8.3,0,0,1,1.15-.82,13.19,13.19,0,0,1,2.64-1.08A26.74,26.74,0,0,1,35,53.36a11.86,11.86,0,0,0,2.44-.49.45.45,0,0,0,.38-.69.34.34,0,0,0-.16-.13,4.67,4.67,0,0,0-.9-.69,6.13,6.13,0,0,0-1.43-.58,12.21,12.21,0,0,0-3.17-.46h0a9.18,9.18,0,0,0-3.61.74Z"/><path class="cls-15" d="M32,50.43a12.35,12.35,0,0,0-2.49.42,14.5,14.5,0,0,0-1.81.55,10.46,10.46,0,0,0-1.91,1.06,6.31,6.31,0,0,0-1,.81,9.47,9.47,0,0,0-.86.93,6.78,6.78,0,0,0-.68,1.13,6,6,0,0,0-.65,2.19,10.59,10.59,0,0,0,0,1.26,5.79,5.79,0,0,0,.3,1.29,5.42,5.42,0,0,0,.65,1.21,4.36,4.36,0,0,0,.86.91,7.74,7.74,0,0,0,1.43.88,2,2,0,0,0,1.59,0,2.1,2.1,0,0,0,1.25-1.65c.1-.45.19-.89.28-1.34a2.72,2.72,0,0,0,0-.28,6.86,6.86,0,0,0,0-1.11c0-.09,0-.19,0-.28l0-.3.07-.18.15-.2c.18-.16.37-.3.56-.44a10.74,10.74,0,0,1,1.36-.55,16.74,16.74,0,0,1,2.9-.41c2.22.08,4.41.56,6.62.8a31.31,31.31,0,0,0,4.11.15,16.28,16.28,0,0,0,1.7-.16,9.35,9.35,0,0,0,1.46-.42H48a.42.42,0,0,0,.27-.68c-.19-.22-.3-.51-.49-.73a6.85,6.85,0,0,0-1.12-1,15.61,15.61,0,0,0-2.7-1.6,22.49,22.49,0,0,0-2.64-1c-1-.29-2.08-.55-3.12-.76a26.07,26.07,0,0,0-5-.52q-.59,0-1.17,0Z"/><path class="cls-16" d="M319.66,106.94a2.92,2.92,0,0,0-1.39,1,4.67,4.67,0,0,0-.86,2,5.07,5.07,0,0,0-.05.56,9.75,9.75,0,0,0,0,1.08,6.5,6.5,0,0,0,.34,1.22,2.22,2.22,0,0,0,.2.41,6,6,0,0,0,.85,1.27l.48.46a3.75,3.75,0,0,0,.66.4,2.5,2.5,0,0,0,.81.24,2.14,2.14,0,0,0,.87,0,1.44,1.44,0,0,0,.65-.22,2.73,2.73,0,0,0,.9-.72,3.09,3.09,0,0,0,.48-.75,4.25,4.25,0,0,0,.21-.66,2.47,2.47,0,0,0,0-.86,3.17,3.17,0,0,0,.34-.92,3.71,3.71,0,0,0-.26-2.72,3.07,3.07,0,0,0-.52-.72,3.62,3.62,0,0,0-.67-.56,4,4,0,0,0-1.62-.6,2.17,2.17,0,0,0-.36,0,4,4,0,0,0-1.15.19Zm1.74,3.53h0l-.07,0,.07,0Zm0,.08,0,0,0,0Zm0,.12,0,.12,0-.12Z"/><path class="cls-16" d="M311.65,119.24a2.83,2.83,0,0,0-1.08.92,3.28,3.28,0,0,0-.49,1.36,4,4,0,0,0,.08,1.34c.06.27.11.55.17.82a2.33,2.33,0,0,0,.48,1.13,6.76,6.76,0,0,0,.62.58,1.9,1.9,0,0,0,.69.36l.19.18a4.46,4.46,0,0,0,1,.58l.79.2a3,3,0,0,0,1.35-.17,2.86,2.86,0,0,0,1.9-2.34,4.54,4.54,0,0,0-.34-2.44,5.27,5.27,0,0,0-.81-1.27,7.19,7.19,0,0,0-.8-.76,3.88,3.88,0,0,0-1.58-.7,3.42,3.42,0,0,0-.79-.09,2.89,2.89,0,0,0-1.34.3Z"/><path class="cls-17" d="M188,0c-2.73.07-5.47.34-8.2.58a141.27,141.27,0,0,0-16,2.26c-2.56.53-5.12,1.12-7.65,1.8-2.88.78-5.73,1.64-8.57,2.54C145,8,142.49,8.82,140,9.71s-5,1.78-7.45,2.77-4.65,2-7,3.07c-2.48,1.1-5,2.2-7.42,3.37a135.66,135.66,0,0,0-14.67,8.17c-2.19,1.4-4.3,2.9-6.37,4.46S93,34.83,91,36.53c-4.13,3.47-8.24,7-12,10.84-2,2-4,4.16-5.85,6.31S69.46,57.87,67.73,60s-3.33,4.3-5,6.48-3.09,4.23-4.54,6.41-3,4.5-4.34,6.81c-1.55,2.57-3,5.16-4.48,7.79-2.65,4.83-5,9.85-7.24,14.86s-4.58,9.92-6.53,15a115.91,115.91,0,0,0-5.1,15.94c-.24,1.06-.48,2.12-.65,3.19s-.32,2.25-.4,3.4a14.46,14.46,0,0,0,.09,3.22,18.71,18.71,0,0,0,.74,2.66,1,1,0,0,0,0,.17.29.29,0,0,0,.55.07c.1-.23.21-.44.33-.66.29-.49.56-1,.82-1.48a13.09,13.09,0,0,0,.69-1.8c.42-1.19.75-2.42,1.13-3.63.81-2.6,1.66-5.18,2.54-7.76,1.77-5.21,3.81-10.32,6-15.35.92-2.08,1.89-4.14,2.86-6.2s2-4.34,3-6.5c2-4.32,4.17-8.6,6.44-12.8Q58.69,83,63.05,76.5c1.46-2.17,3-4.28,4.58-6.37s3.3-4.34,5-6.45c3.08-3.82,6.34-7.52,9.73-11.08,3.84-3.82,7.91-7.38,12-10.87,2-1.7,4.07-3.37,6.16-5s4.18-3.07,6.35-4.48c1.17-.76,2.36-1.49,3.56-2.2,2.19-1.26,4.4-2.5,6.64-3.65,2.45-1.25,5-2.41,7.46-3.54l7.34-3.28c2.36-1.07,4.77-2,7.21-2.93q4.61-1.71,9.31-3.18c3-.94,6-1.89,9-2.73,2.54-.66,5.08-1.27,7.65-1.8s5-.91,7.55-1.25c2.73-.37,5.46-.69,8.21-.9s5.63-.44,8.45-.52l1.63,0a120,120,0,0,1,15.5,1.19c2.63.38,5.26.77,7.88,1.21s5.16.91,7.74,1.42,5,1.1,7.45,1.73,4.79,1.32,7.18,2c2.65.77,5.3,1.54,7.93,2.39l7.6,2.46c2.44.79,4.89,1.63,7.26,2.63a98.65,98.65,0,0,1,8.95,4.22,50.06,50.06,0,0,1,4.5,2.84c.71.53,1.41,1.07,2.13,1.59s1.32.95,2,1.44,1.41,1,2.07,1.61,1.21,1.14,1.85,1.68a7.24,7.24,0,0,0,1.14.75,9,9,0,0,0,1,.56,3,3,0,0,0,3.38-.93,2.73,2.73,0,0,0,.5-1.25,3,3,0,0,0-.58-2.23,5.06,5.06,0,0,0-1.75-1.25,25.09,25.09,0,0,1-2.47-2.14c-.89-.77-1.86-1.46-2.8-2.18s-1.87-1.47-2.81-2.19-2.21-1.61-3.37-2.32c-2.2-1.36-4.47-2.6-6.8-3.74-1.17-.57-2.36-1.09-3.55-1.63s-2.44-1.08-3.69-1.55c-2.41-.92-4.86-1.73-7.33-2.52s-5.12-1.67-7.7-2.44C238.78,8,233.43,6.46,228,5.14l-3.7-.89c-1.26-.29-2.53-.53-3.8-.79-2.59-.52-5.2-.94-7.81-1.37A156.64,156.64,0,0,0,196.84.19Q193.72,0,190.59,0,189.3,0,188,0ZM158,10.61l-.23.06.23-.06ZM54.74,90c-.08.13-.16.27-.23.41.07-.14.15-.28.23-.41ZM31.32,145.26l0,.05,0-.05Z"/><path class="cls-17" d="M295.42,41.52l-.66.18a2.59,2.59,0,0,0-1.05.83,2.56,2.56,0,0,0,.52,3.57,2.5,2.5,0,0,0,.95.44,17.57,17.57,0,0,1,1.59,1.06,27.45,27.45,0,0,1,2.16,1.86,39.76,39.76,0,0,1,4.87,5.65c.72,1.07,1.51,2.09,2.25,3.14s1.31,1.92,1.92,2.91,1.12,2.16,1.65,3.26c.31.64.62,1.28.91,1.93s.51,1.18.78,1.77a15.39,15.39,0,0,0,1.15,2.11,9.44,9.44,0,0,0,1.38,1.52,14.77,14.77,0,0,0,3.5,2.15c.88.46,1.75.93,2.64,1.37s1.81.82,2.69,1.29a1.19,1.19,0,0,0,.23.16c.24.14.51-.19.27-.36a.72.72,0,0,1-.2-.14c-.92-1-1.74-2-2.71-2.91L318.78,72c-.47-.44-1-.83-1.45-1.26l-.62-.62a3.45,3.45,0,0,1-.5-.64,8,8,0,0,1-.61-1.58c-.17-.56-.33-1.12-.49-1.69-.2-.77-.42-1.53-.69-2.27s-.49-1.33-.75-2a29.82,29.82,0,0,0-2.07-4.11c-.69-1.16-1.43-2.29-2.21-3.39-.39-.56-.8-1.11-1.18-1.67s-.8-1.23-1.23-1.81a48.45,48.45,0,0,0-5.05-5.57,19.25,19.25,0,0,0-2.64-2.2c-.42-.29-.86-.58-1.3-.85s-.65-.38-1-.55a2.71,2.71,0,0,0-1.19-.29,1.61,1.61,0,0,0-.39,0Zm.73,5h0Zm26.78,29.61,0,0,0,0Z"/><path class="cls-17" d="M318.34,2.88a17.42,17.42,0,0,0-2.68.44,25.34,25.34,0,0,0-5.78,2.11,54.19,54.19,0,0,0-5.05,3,38.31,38.31,0,0,0-8,7.51c-.57.66-1.1,1.35-1.61,2s-1,1.48-1.47,2.19c-1,1.37-2.06,2.65-3.05,4s-2,2.72-2.89,4.13-1.91,3-2.9,4.44c-.89,1.31-1.8,2.62-2.61,4-.44.75-.87,1.49-1.27,2.26a15.35,15.35,0,0,0-1,2.17,3.57,3.57,0,0,0-.15,1.08.82.82,0,0,0,.31.74A.79.79,0,0,0,281,43a3.86,3.86,0,0,0,.88-.56l.62-.62a10.79,10.79,0,0,1,1.62-1.31,20.24,20.24,0,0,0,1.82-1.38A13.85,13.85,0,0,0,287.07,38c.31-.32.6-.64.88-1,.52-.61,1-1.27,1.45-1.92,1-1.42,2.09-2.82,3.14-4.24s2-2.75,3-4.09c1.3-1.66,2.69-3.26,4.05-4.88.68-.8,1.4-1.57,2.1-2.35s1.35-1.5,2-2.23a28.75,28.75,0,0,1,3-2.73,40.19,40.19,0,0,1,3.47-2.31c1-.59,2.05-1.15,3.11-1.66a21.08,21.08,0,0,1,3.16-1.18,15,15,0,0,1,2-.36c.65-.07,1.3-.1,2-.12a17.22,17.22,0,0,1,2.68.33,15,15,0,0,1,2.05.79,11.86,11.86,0,0,1,1.47,1c.15.17.28.35.41.53a7,7,0,0,1,.37.89,12,12,0,0,1,.19,1.89,13.94,13.94,0,0,1-.23,2.59,9.13,9.13,0,0,1-.56,1.33,21,21,0,0,1-2.38,3,50.58,50.58,0,0,1-5,4.4,60.79,60.79,0,0,1-5.6,3.76c-1.38.81-2.77,1.59-4.16,2.37-1.55.86-3.08,1.74-4.64,2.58L300.47,37c-.84.44-1.65.92-2.47,1.39s-1.74,1-2.57,1.54-1.58,1.09-2.33,1.69a20,20,0,0,0-2,1.82,16,16,0,0,0-1.89,2.29A25.05,25.05,0,0,0,288,47.91l-.82,1.31a.3.3,0,0,0,.43.41l.34-.24a9.76,9.76,0,0,1,.89-.51l1.2-.56c.78-.36,1.55-.73,2.3-1.14,1.58-.86,3.11-1.81,4.68-2.69,3.08-1.75,6.37-3.08,9.56-4.59s6.2-3.17,9.22-4.87c1.71-1,3.37-2,5-3.06a46.76,46.76,0,0,0,4.08-3.07A54.19,54.19,0,0,0,329.05,25a25.16,25.16,0,0,0,1.81-2.06,16.9,16.9,0,0,0,1.75-2.73,11,11,0,0,0,1.13-4.42,22.45,22.45,0,0,0,0-3.48,12.18,12.18,0,0,0-.54-2.22,8.42,8.42,0,0,0-1-1.94A9.57,9.57,0,0,0,330,5.76a14.54,14.54,0,0,0-2.68-1.61,12.18,12.18,0,0,0-2.29-.8,15.56,15.56,0,0,0-3.24-.54c-.34,0-.69,0-1,0-.8,0-1.59,0-2.38.1Z"/><path class="cls-17" d="M10.75,8.75A10.24,10.24,0,0,0,9,9,11.52,11.52,0,0,0,5.84,10.1a15.78,15.78,0,0,0-1.91,1.21,10.59,10.59,0,0,0-1.61,1.6A10.43,10.43,0,0,0,1,15.09a11.24,11.24,0,0,0-.7,2.22c-.08.29-.14.59-.2.89A12.44,12.44,0,0,0,0,20.56a8.74,8.74,0,0,0,.26,1.69,11.79,11.79,0,0,0,.6,2c.2.44.39.89.61,1.32a24.93,24.93,0,0,0,3.28,5A55.13,55.13,0,0,0,13,38.45c1.44,1.12,3,2.12,4.48,3.13s2.93,1.88,4.42,2.79c3.22,2,6.45,3.89,9.74,5.71C34.75,51.79,37.91,53.37,41,55c2.8,1.47,5.58,3,8.41,4.42A31.09,31.09,0,0,0,53.7,61.2a17.28,17.28,0,0,0,2.33.59l1.18.16c.32,0,.64.12,1,.19l.15.09a.18.18,0,0,0,.15.07h0c.19,0,.38-.27.17-.39a1.62,1.62,0,0,1-.46-.34l-.35-.34h0a23.33,23.33,0,0,0-1.91-1.94,24.76,24.76,0,0,0-2.16-1.66c-1.45-1-3-2-4.48-3-3.13-2-6.36-3.81-9.62-5.57-1.26-.69-2.52-1.37-3.77-2.07-1.44-.82-2.86-1.65-4.27-2.51-1.57-1-3.12-2-4.67-3-2.95-1.92-5.92-3.82-8.73-5.94a52.35,52.35,0,0,1-4.41-3.73,45.38,45.38,0,0,1-3.13-3.38c-.59-.73-1.18-1.46-1.73-2.23-.43-.6-.83-1.21-1.22-1.84a18.67,18.67,0,0,1-1.37-3.06A8.38,8.38,0,0,1,6.19,20a9.19,9.19,0,0,1,.16-1.27,10.06,10.06,0,0,1,.53-1.38,6.14,6.14,0,0,1,.54-.72,9,9,0,0,1,.92-.71l.72-.36a6.19,6.19,0,0,1,.85-.32A12.16,12.16,0,0,1,11.5,15a12.33,12.33,0,0,1,2.18.32,12.94,12.94,0,0,1,1.57.59l1.24.64c3,1.82,5.78,3.94,8.57,6a100.48,100.48,0,0,1,8.26,6.72l1.25,1.18c2.39,2.38,4.6,4.92,7,7.34,1.38,1.43,2.86,2.76,4.32,4.11,1.3,1.2,2.6,2.41,3.95,3.56,1,.88,2.07,1.74,3.11,2.6S55.12,50,56.18,51c2.1,2,4.18,4.15,6.92,5.24a.9.9,0,0,0,1.16-1.18,14,14,0,0,0-1.53-2.69c-.49-.68-1-1.32-1.57-1.95C60,49.1,58.9,47.72,57.72,46.39S55.53,44,54.39,42.76s-2.47-2.52-3.7-3.79-2.6-2.63-3.87-4-2.37-2.62-3.53-3.95S41,28.45,39.82,27.2c-1.41-1.47-2.9-2.87-4.41-4.24-2.64-2.39-5.5-4.54-8.35-6.68-1.38-1.05-2.79-2.06-4.21-3.07a36.55,36.55,0,0,0-5.25-3.13,16.67,16.67,0,0,0-3.23-1,9.66,9.66,0,0,0-1.49-.25,10.94,10.94,0,0,0-1.15,0Z"/><path class="cls-17" d="M31.8,49.82a7.32,7.32,0,0,0-1.06.11c-.59.11-1.17.27-1.74.43a9.74,9.74,0,0,0-2.4,1.18,9.85,9.85,0,0,0-1.71,1.38,11,11,0,0,0-1,1.14A7.64,7.64,0,0,0,23,55.77a7.79,7.79,0,0,0-.48,1.9,7.34,7.34,0,0,0,0,2A11.07,11.07,0,0,0,23.12,62a8.36,8.36,0,0,0,.47,1A12.47,12.47,0,0,0,28,67.84a22.89,22.89,0,0,0,2.33,1.37c.66.35,1.34.67,2,1a42.09,42.09,0,0,0,9.51,2.52c1.46.23,2.93.41,4.39.56s3,.26,4.55.46c1.82.23,3.64.54,5.46.81.92.13,1.84.36,2.77.43.48,0,1,.06,1.43.07a8.68,8.68,0,0,0,.88,0,4.52,4.52,0,0,0,.8-.22.68.68,0,0,0,.27-1,3.62,3.62,0,0,0-1.05-.9,9.47,9.47,0,0,0-1-.4l-1-.4-1-.37c-.67-.24-1.32-.52-2-.77s-1.48-.55-2.23-.78c-1.57-.49-3.2-.81-4.8-1.18s-3-.6-4.49-.85c-1.71-.29-3.4-.63-5.08-1a40.47,40.47,0,0,1-8.15-3.13,16.39,16.39,0,0,1-2.28-1.6,14.3,14.3,0,0,1-1.23-1.56,9.31,9.31,0,0,1-.71-1.58,5.93,5.93,0,0,1-.12-.83c0-.22.05-.43.09-.64a6.15,6.15,0,0,1,.28-.71,6.65,6.65,0,0,1,.61-.79,14.13,14.13,0,0,1,1.37-1.08l.63-.33a9.1,9.1,0,0,1,1-.39q.49-.12,1-.21c.5-.07,1-.11,1.52-.13a11.11,11.11,0,0,1,1.73.14c.75.13,1.49.3,2.23.48l-.45-.12c1.53.4,3.07.81,4.59,1.27l2.35.72c.77.24,1.56.42,2.34.61a6.51,6.51,0,0,1,.72.31l.08.07v0c.12.11.36.09.36-.12s-.16-.28-.31-.36-.35-.29-.53-.43a23.67,23.67,0,0,0-3.42-2.81,32.51,32.51,0,0,0-4.23-2.38,17.57,17.57,0,0,0-2.06-.86,15.7,15.7,0,0,0-2.6-.65,17,17,0,0,0-2-.13l-.75,0ZM47.36,57l0,0,0,0Z"/><path class="cls-17" d="M52.7,24.92a8.48,8.48,0,0,0-2.93.82A7,7,0,0,0,47,28.35,6,6,0,0,0,46.21,30a7.85,7.85,0,0,0-.3,1.86,8.09,8.09,0,0,0,.18,2c.1.46.25.92.39,1.37a13.06,13.06,0,0,0,.87,2.08A30.26,30.26,0,0,0,50,41.73a23.76,23.76,0,0,0,4.81,5,30.43,30.43,0,0,0,2.69,1.77,23.88,23.88,0,0,1,2.9,1.87l0,0h0a.21.21,0,0,0,.38.06.25.25,0,0,0,0-.22,1.44,1.44,0,0,0-.36-.38A56.07,56.07,0,0,1,56.76,45c-1.16-1.64-2.3-3.28-3.35-5A30.82,30.82,0,0,1,51,34.44a8.83,8.83,0,0,1-.25-1.54,6.47,6.47,0,0,1,.11-.87,4.14,4.14,0,0,1,.19-.49,5.55,5.55,0,0,1,.35-.46,4,4,0,0,1,.4-.32,3.56,3.56,0,0,1,.41-.17,8.16,8.16,0,0,1,1.48-.15,10.75,10.75,0,0,1,1.6.19,7.5,7.5,0,0,1,.83.32,9.19,9.19,0,0,1,1,.75,24.13,24.13,0,0,1,3,4.16c1,1.66,2,3.31,2.94,5l-.21-.34c.85,1.45,1.65,2.93,2.6,4.32.86,1.23,1.78,2.41,2.64,3.63s1.75,2.46,2.62,3.7c.41.57.79,1.15,1.19,1.73s.7,1,1,1.5l.26.43a1.6,1.6,0,0,0,.42.44,2.77,2.77,0,0,0,1,.4,1.81,1.81,0,0,0,1.43-.4,1.87,1.87,0,0,0,.7-1.25,2.57,2.57,0,0,0,0-.62,2.37,2.37,0,0,0-.46-1L76,52.89c-.18-.27-.35-.54-.53-.8-.38-.55-.74-1.1-1.09-1.66-.66-1-1.3-2.11-1.94-3.18-3.18-5.6-5.67-11.6-9.24-17a18.54,18.54,0,0,0-1.5-1.91,10.29,10.29,0,0,0-2.37-2.05,10.87,10.87,0,0,0-1.67-.84,11.16,11.16,0,0,0-2-.5,8.62,8.62,0,0,0-1.24-.09h-.72a8.94,8.94,0,0,0-1,.05Zm7.74,25.23Z"/><path class="cls-17" d="M36,68.87c0,.11.07.25.19.25l.13,0h0a37.43,37.43,0,0,0,3.81,1.47c1.32.44,2.66.82,4,1.25s2.63.83,3.93,1.27,2.66.92,4,1.41l2.49.92c.68.24,1.39.4,2.05.69a4,4,0,0,0,.57.32,2.4,2.4,0,0,0,3.28-2.55c-.06-.2-.11-.41-.17-.62a2.36,2.36,0,0,0-.78-1,4.11,4.11,0,0,0-1.73-.7l-.92-.22L54.85,71c-1.29-.29-2.56-.62-3.86-.8s-2.78-.37-4.18-.52-2.91-.28-4.35-.44a54.14,54.14,0,0,0-5.82-.48h-.25l-.13,0c-.13,0-.24.06-.25.19Zm.62-.16h0Zm0,0h0Z"/><path class="cls-17" d="M65.13,38.85v0a4.6,4.6,0,0,0-.11.73c0,.42,0,.83,0,1.24a11.22,11.22,0,0,0,.54,2.36,15.47,15.47,0,0,0,2,4.16,31.5,31.5,0,0,0,2.47,3.3,34.33,34.33,0,0,0,3,3l.29.39a2.49,2.49,0,0,0,2.9.74,2.54,2.54,0,0,0,1.33-1.35c0-.2.1-.41.16-.61a2.55,2.55,0,0,0-.18-1.28,2.58,2.58,0,0,0-.62-1c-.26-.26-.53-.52-.81-.75s-.59-.47-.89-.69a21.58,21.58,0,0,1-1.77-1.53c-1.35-1.36-2.6-2.8-3.86-4.24-.67-.77-1.25-1.61-1.88-2.42-.34-.45-.7-.88-1.08-1.3a5.25,5.25,0,0,0-1.11-.88h0a.22.22,0,0,0-.4.17Zm8.26,15.08.06.06-.06-.06Z"/><path class="cls-17" d="M310.88,138.34a14.8,14.8,0,0,0-5.24,1.18,20.47,20.47,0,0,0-2.4,1.28c-.92.54-1.84,1.1-2.73,1.69a13.1,13.1,0,0,0-2.07,1.8c-.64.63-1.25,1.28-1.87,1.93-1,1-2.09,2.05-3,3.17a14.73,14.73,0,0,0-1.22,1.71l0,0c-.79.77-1.56,1.56-2.33,2.36q-1.64,1.69-3.15,3.5c-1,1.26-2,2.56-3,3.9a44.15,44.15,0,0,0-2.76,4.58,46,46,0,0,0-2.12,4.21,19.47,19.47,0,0,0-.72,2.24c-.24.88-.48,1.76-.64,2.65a9.09,9.09,0,0,0,.65,5.37,13.06,13.06,0,0,0,1.43,2.42,12,12,0,0,0,1.94,2.09,19.21,19.21,0,0,0,9.69,4.06,39.33,39.33,0,0,0,10.34,0c3.2-.34,6.39-.85,9.58-1.27s6.46-.84,9.69-1.25c6.52-.83,13-1.82,19.43-3.25q5.13-1.14,10.21-2.54,2.34-.64,4.68-1.33c1.55-.47,3.11-.94,4.63-1.5a20.88,20.88,0,0,0,4.74-2.45,8.19,8.19,0,0,0,3.12-4.47,10.3,10.3,0,0,0,.35-1.65c0-.4,0-.81,0-1.21a9.76,9.76,0,0,0-.09-1.71,13,13,0,0,0-.48-1.83,7.83,7.83,0,0,0-.45-1,18.42,18.42,0,0,0-1-1.66,12.76,12.76,0,0,0-1.5-1.77c-.73-.74-1.48-1.47-2.25-2.16-.56-.5-1.17-.93-1.77-1.37a46.93,46.93,0,0,0-4-2.56c-1.52-.9-3.09-1.74-4.67-2.55s-3.1-1.42-4.66-2.14c-.87-.41-1.72-.84-2.57-1.29-1.38-.79-2.74-1.6-4.14-2.35-.72-.39-1.44-.77-2.19-1.09s-1.58-.62-2.38-.9c-1.51-.52-3.06-1-4.58-1.45-1.72-.55-3.43-1.09-5.19-1.51-1.6-.38-3.22-.62-4.84-.9s-3.31-.57-5-.77a39.83,39.83,0,0,0-4.5-.29c-.37,0-.74,0-1.11,0Zm-.55,5.87a10.24,10.24,0,0,1,1.36-.1c1.19,0,2.39.1,3.58.22s2.46.32,3.68.52,2.51.43,3.76.66,2.34.45,3.49.74c.91.25,1.8.53,2.7.82s2.08.62,3.11,1,2.21.73,3.31,1.12a21.68,21.68,0,0,1,3,1.39c1,.58,2,1.18,3.06,1.78,1.39.81,2.84,1.52,4.29,2.19s2.61,1.13,3.89,1.76c1.11.55,2.18,1.14,3.26,1.74s2.42,1.43,3.58,2.22c.65.45,1.3.91,1.92,1.39a17.93,17.93,0,0,1,1.55,1.34,15.55,15.55,0,0,1,1.9,2.23c.12.22.23.44.34.66a4.81,4.81,0,0,1,.2.53,6.25,6.25,0,0,1,.14,1,9.7,9.7,0,0,1-.17,1.51c-.07.21-.16.42-.25.63s-.24.33-.37.48a10.55,10.55,0,0,1-1.25.95,22,22,0,0,1-2.39,1.16c-1,.42-2.09.76-3.15,1.1-2,.63-3.94,1.2-5.92,1.75-6.28,1.67-12.6,3.14-19,4.19s-13.08,2-19.61,3q-3.68.57-7.34,1.18c-1.29.22-2.58.44-3.88.59s-2.4.21-3.61.24c-1,0-1.91,0-2.86-.14a25.53,25.53,0,0,1-3-.5,21.21,21.21,0,0,1-3.44-1.36,13.17,13.17,0,0,1-2-1.48,13.89,13.89,0,0,1-1.38-1.78,10.86,10.86,0,0,1-.66-1.53,8.26,8.26,0,0,1-.17-1.11,14.81,14.81,0,0,1,.47-2.63,20.21,20.21,0,0,1,.67-2.13c.25-.68.58-1.33.89-2,.63-1.28,1.32-2.54,2-3.79l0,.09a51,51,0,0,1,7.27-9.41c.6-.61,1.21-1.22,1.82-1.82l.15-.11c.48-.36.94-.73,1.39-1.11.88-.73,1.71-1.52,2.57-2.26s1.66-1.46,2.47-2.22l1.21-1.09a9.73,9.73,0,0,1,1.12-.78,26.16,26.16,0,0,1,5.07-2.48c.43-.1.87-.19,1.31-.25Zm-13.95,2.2-.25.26.25-.26Zm-10.16,18.84-.09.15.09-.15Zm62.62,9.7-.48.13.48-.13Z"/><path class="cls-17" d="M293.49,64.55a24,24,0,0,0-4.47.5,9.46,9.46,0,0,0-2.47.88,4.15,4.15,0,0,0-1.94,1.66.47.47,0,0,0,.16.56,4.45,4.45,0,0,0,2.05.64c.71.09,1.42.13,2.14.15,1.47,0,3,0,4.41.18s3,.36,4.52.57,2.84.4,4.24.66c1.21.23,2.42.49,3.63.75s2.18.46,3.27.73a27.42,27.42,0,0,1,2.6.88A24.76,24.76,0,0,1,314.22,74c1.28.74,2.54,1.52,3.75,2.37a34,34,0,0,1,3.36,2.74c.53.54,1,1.08,1.52,1.64a21.06,21.06,0,0,1,1.39,1.87c.87,1.27,1.72,2.55,2.52,3.86a57.87,57.87,0,0,1,2.9,5.65c.43,1,.77,2,1.1,3s.58,1.79.83,2.7c.37,1.38.73,2.78,1,4.19s.5,3,.7,4.42a65.34,65.34,0,0,1,.45,8.62v.53c0,1.2-.05,2.41-.08,3.61s0,2.66,0,4c0,1.18-.06,2.36-.14,3.55a33,33,0,0,1-.48,3.69c-.22,1.24-.4,2.5-.64,3.74s-.44,2.2-.7,3.29c-.21.7-.46,1.37-.71,2.06l-.39,1.1c-.07.2-.15.39-.23.58a3,3,0,0,0-.21.73,2.23,2.23,0,0,0,.15,1.14l.33.55a2.1,2.1,0,0,0,1.94.79,2.35,2.35,0,0,0,1.14-.47,2.49,2.49,0,0,0,.7-1c.06-.13.11-.26.17-.38.16-.32.3-.64.46-1,.3-.6.58-1.21.82-1.84s.44-1.36.63-2,.46-1.67.66-2.51c.35-1.49.61-3,.89-4.5a35.22,35.22,0,0,0,.51-4.22c.08-1.47.1-3,.12-4.42s.09-2.92.17-4.38c.09-1.71.08-3.43.07-5.15,0-1.43,0-2.87-.12-4.3s-.24-2.92-.46-4.37-.45-2.9-.77-4.34q-.58-2.55-1.33-5c-.19-.66-.41-1.3-.63-2s-.47-1.36-.75-2c-.61-1.47-1.32-2.88-2.05-4.28s-1.62-2.93-2.53-4.35-1.67-2.58-2.59-3.81A25.9,25.9,0,0,0,324,74.31a42.94,42.94,0,0,0-8.08-5.46,23.54,23.54,0,0,0-4-1.71,27,27,0,0,0-2.68-.7c-.72-.16-1.44-.29-2.16-.42-1.42-.26-2.85-.52-4.27-.75s-2.84-.39-4.27-.53-2.74-.2-4.11-.2Zm40.24,51.21v0Z"/><path class="cls-17" d="M286.32,65.58a27.12,27.12,0,0,0-4.53,1.07,22.14,22.14,0,0,0-2.1.8c-.65.28-1.3.55-1.94.87a42.12,42.12,0,0,0-7.46,5.11c-1.15.93-2.34,1.82-3.47,2.76-.58.48-1.12,1-1.67,1.5s-1,1-1.56,1.51a19.07,19.07,0,0,0-1.69,1.91c-.45.61-.86,1.25-1.26,1.89-.78,1.29-1.51,2.64-2.22,4a38.72,38.72,0,0,0-1.69,3.71c-.54,1.33-1,2.72-1.37,4.09s-.92,3-1.25,4.55-.52,2.82-.68,4.24a53.09,53.09,0,0,0-.12,9.35c.09,1.42.21,2.85.35,4.27a34.82,34.82,0,0,0,.69,4.29c.3,1.4.62,2.8,1,4.19.37,1.57.74,3.13,1.23,4.67.43,1.34.94,2.65,1.5,3.94s1.09,2.58,1.74,3.82a24.84,24.84,0,0,0,5.77,7.42c1,.88,2.07,1.7,3.11,2.54s2,1.64,3,2.4a35.42,35.42,0,0,0,3.24,2.06c1.42.8,2.82,1.61,4.29,2.3a22.13,22.13,0,0,0,2.34.9c1,.34,2,.66,3,.92.82.2,1.64.4,2.46.58l1.17.25.55.13a2.58,2.58,0,0,0,2.22-.5,2.35,2.35,0,0,0,.87-1.54v-.61a2.32,2.32,0,0,0-.49-1.15c-.51-.83-1.64-1-2.52-1.25-.38-.1-.78-.17-1.16-.27-.69-.16-1.38-.34-2.07-.51-1.05-.3-2.08-.67-3.11-1-.55-.2-1.11-.42-1.65-.66a16.56,16.56,0,0,1-1.51-.78l-1.33-.74c-.83-.47-1.67-.95-2.46-1.49s-1.72-1.24-2.55-1.89-1.67-1.35-2.51-2-1.65-1.29-2.42-2a25.4,25.4,0,0,1-3.39-4.4,51.87,51.87,0,0,1-2.35-5,42.89,42.89,0,0,1-1.88-5.11c-.34-1.35-.66-2.72-1-4.08s-.64-2.82-.88-4.24-.33-2.78-.43-4.18-.21-3-.27-4.56c0-.42,0-.86,0-1.29a41.92,41.92,0,0,1,1.1-9.4c.31-1.13.65-2.25,1-3.38s.71-2.5,1.18-3.72a36.75,36.75,0,0,1,1.51-3.47c.53-1,1.07-2.1,1.63-3.12.34-.58.68-1.15,1-1.71a12.74,12.74,0,0,1,1.25-1.5c.84-.85,1.72-1.66,2.61-2.45s2-1.6,3-2.39a68.66,68.66,0,0,1,5.9-4.33c.49-.28,1-.56,1.48-.81s1.14-.52,1.72-.78,1.19-.51,1.8-.71,1.12-.35,1.69-.51a33.35,33.35,0,0,1,5-.81c.95-.1,1.88-.21,2.82-.4.32-.07.63-.18.94-.27a3.27,3.27,0,0,0,.55-.2,3.18,3.18,0,0,0,1.21-.9.59.59,0,0,0,0-.71,2.21,2.21,0,0,0-.86-.65,6.34,6.34,0,0,0-1.28-.4,17.87,17.87,0,0,0-2.19-.23c-.5,0-1,0-1.49,0a25.16,25.16,0,0,0-3.13.18Zm-8.63,82.77.3.17-.3-.17Zm.34.19.22.13-.22-.13Zm7.14,3.11.18,0-.18,0Z"/><path class="cls-17" d="M277,52.45c-.66.06-1.33.14-2,.24a27.52,27.52,0,0,0-4.38,1,17.69,17.69,0,0,0-4.18,2,22.17,22.17,0,0,0-2.61,2c-.46.4-.89.83-1.32,1.25a14.17,14.17,0,0,0-1.42,1.58,14.6,14.6,0,0,0-1.89,3.33.42.42,0,0,0,0,.1,2.39,2.39,0,0,0-.37,1.19v0a3.69,3.69,0,0,0-.08.46,6.13,6.13,0,0,0,0,1,2.11,2.11,0,0,0,.18.59v0a.22.22,0,0,0,.19.24.25.25,0,0,0,.21-.08,1.88,1.88,0,0,0,.42-.14l.34-.19a1.3,1.3,0,0,0,.34.08,1.81,1.81,0,0,0,.95-.13,4.79,4.79,0,0,0,1.26-.77l.8-.62a11.49,11.49,0,0,0,1.39-1.4A19.29,19.29,0,0,1,268,61.93c1-.55,1.92-1.09,2.91-1.58.59-.29,1.17-.58,1.78-.84.41-.17.84-.31,1.26-.44a20.72,20.72,0,0,1,2.2-.4c.71-.09,1.43-.11,2.15-.13.94,0,1.89,0,2.83.14,1.11.12,2.2.33,3.31.53.53.09,1.05.17,1.59.22a7.36,7.36,0,0,0,1.15,0l.75-.2a2.44,2.44,0,0,0,1-.82,2.34,2.34,0,0,0,.44-1.08,2.71,2.71,0,0,0-.19-1.29,3.16,3.16,0,0,0-1.22-1.34,15.31,15.31,0,0,0-2-1.08,12.43,12.43,0,0,0-2-.69,17.53,17.53,0,0,0-4.39-.53h-.22c-.77,0-1.55,0-2.33.06Zm7.32.57-.27-.07.27.07Zm-.43-.11H284l.08,0h0l.06,0-.32-.09.15,0-.45-.12.46.12Z"/><path class="cls-17" d="M33.89,127.54a10.54,10.54,0,0,1-1.23,1.09l-.84.61a13.47,13.47,0,0,0-1.73,1.56c-.91.94-1.78,1.93-2.68,2.88s-2.09,2-3.21,2.91a39.68,39.68,0,0,1-3.87,2.8c-1.34.88-2.71,1.72-4.08,2.57-1.18.74-2.36,1.5-3.56,2.22S10,145.7,8.63,146.35c-.79.37-1.58.73-2.39,1.06L5,147.92l-.49.2-.27.12a3.79,3.79,0,0,0-1.64,1.21A3.54,3.54,0,0,0,2,151a3.49,3.49,0,0,0,.22,1.69,7.35,7.35,0,0,0,.64,1,6.24,6.24,0,0,0,.82.81,9.36,9.36,0,0,0,1.06.82c.7.48,1.41.94,2.12,1.38q2.29,1.43,4.56,2.88c2.52,1.63,5.12,3.14,7.67,4.73,1.26.79,2.52,1.61,3.78,2.41.61.4,1.24.78,1.82,1.21a10.15,10.15,0,0,0,.92.7,7.43,7.43,0,0,0,1.05.6,3.38,3.38,0,0,0,1.78.17A2.83,2.83,0,0,0,30.8,167a3.29,3.29,0,0,0-.19-1.81,4.43,4.43,0,0,0-.71-1.07,7,7,0,0,0-1.53-1.29c-.72-.47-1.47-.9-2.19-1.36-1.52-1-3-1.92-4.57-2.86L17.26,156c-1.53-.92-3-1.89-4.56-2.82-.72-.44-1.45-.86-2.17-1.28l.56-.26c1.74-.83,3.4-1.79,5-2.77s3-1.84,4.43-2.76,3-1.87,4.48-2.9a37.91,37.91,0,0,0,3.31-2.64,29.58,29.58,0,0,0,3.13-3.3,13.67,13.67,0,0,0,1.37-2.09,10.63,10.63,0,0,0,.86-1.92,12.35,12.35,0,0,0,.34-1.33,9.85,9.85,0,0,0,.15-1.09,12.15,12.15,0,0,0-.05-2,5.77,5.77,0,0,1,.1-1.1h0a.26.26,0,0,0-.23-.27.19.19,0,0,0-.13.06Z"/><path class="cls-17" d="M25.69,151.68l0,.19c-.21.62-.46,1.22-.67,1.83a10.74,10.74,0,0,0-.27,1.12,7.71,7.71,0,0,0-.19,1.17,25.86,25.86,0,0,0,0,5.13c.14,1.58.24,3.17.46,4.74a35.29,35.29,0,0,0,.74,4.23c.26,1,.53,1.95.83,2.91a15.62,15.62,0,0,0,.83,2,39.22,39.22,0,0,0,2.32,4.15c1.61,2.56,3.43,5,5.27,7.4,2,2.6,4.05,5.14,6.1,7.7,1.84,2.3,3.69,4.6,5.58,6.86s4,4.74,6,7.08c1,1.11,2,2.16,3,3.21s2.07,2.13,3.13,3.17c2.37,2.32,4.79,4.59,7.32,6.73s4.92,3.9,7.42,5.79,5.07,3.74,7.71,5.45,5.44,3.27,8.16,4.88,5.18,3.06,7.76,4.62c2.81,1.7,5.6,3.42,8.47,5a117.81,117.81,0,0,0,17,7.46c2.88,1.07,5.8,2,8.72,2.92s5.61,1.82,8.43,2.69,5.7,1.66,8.56,2.46c3.09.87,6.2,1.64,9.36,2.22q4.22.75,8.46,1.29c3.1.4,6.22.61,9.33.88,2.89.25,5.78.58,8.67.8,3.16.24,6.33.46,9.49.61a121.72,121.72,0,0,0,18.9-.53,133.72,133.72,0,0,0,16.73-3.06c3-.72,6-1.49,8.94-2.29s6.09-1.6,9.09-2.54a78.08,78.08,0,0,0,8.73-3.34c2.66-1.21,5.25-2.6,7.79-4,1.56-.88,3.1-1.81,4.63-2.75,1.23-.75,2.4-1.6,3.57-2.45,2.43-1.77,4.81-3.59,7.21-5.4s4.74-3.56,7.11-5.35c1.15-.86,2.3-1.74,3.4-2.67s2.4-2,3.59-3.1,2.16-1.89,3.18-2.89A37.06,37.06,0,0,0,300,224c.95-1.23,1.8-2.55,2.65-3.84s1.69-2.54,2.55-3.8c1.78-2.62,3.76-5.12,5.36-7.87.72-1.25,1.43-2.52,2.17-3.78s1.38-2.3,2.08-3.45c.83-1.37,1.62-2.77,2.48-4.13,1-1.53,1.88-3.1,2.81-4.66.43-.71.9-1.39,1.33-2.11s.82-1.4,1.24-2.1.82-1.31,1.27-1.94c.23-.32.48-.63.73-.94L325,185a4.09,4.09,0,0,0,1-1.59l.18-.68a2.67,2.67,0,0,0-.2-1.42,2.78,2.78,0,0,0-2.18-1.66,3.62,3.62,0,0,0-1.09,0,4.16,4.16,0,0,0-1.13.37,4,4,0,0,0-1.25.89,16.61,16.61,0,0,0-1.21,1.31,13.69,13.69,0,0,0-1.39,2c-1,1.59-1.83,3.23-2.73,4.86-.7,1.2-1.39,2.41-2.14,3.58s-1.5,2.43-2.23,3.66c-1.4,2.34-2.84,4.65-4.21,7-.73,1.28-1.45,2.56-2.3,3.76s-1.87,2.66-2.82,4c-1.82,2.53-3.48,5.16-5.24,7.72-.52.76-1,1.52-1.63,2.24s-1.18,1.41-1.81,2.09c-2,2-4.12,3.78-6.25,5.59s-4.68,3.68-7.06,5.47-4.65,3.49-7,5.25q-1.86,1.41-3.74,2.79c-1.22.9-2.44,1.77-3.72,2.58-.52.33-1.05.65-1.58,1q-2.67,1.56-5.41,3c-1.88,1-3.78,1.93-5.72,2.76-2.09.89-4.22,1.71-6.38,2.43-1.9.63-3.84,1.18-5.78,1.72l.23-.06-.27.07-.53.15.3-.09c-5.61,1.53-11.22,3.06-16.93,4.19-2.72.54-5.44,1-8.18,1.4s-5.62.64-8.45.81q-3.42.21-6.85.22c-3.1,0-6.18-.18-9.27-.39s-6.17-.43-9.25-.71l-8.6-.75c-3-.27-6-.65-9.05-1.09q-2.83-.42-5.66-.92c-1.78-.32-3.54-.75-5.29-1.19-5.7-1.54-11.36-3.23-17-5-2.86-.91-5.72-1.81-8.56-2.78s-5.56-2.06-8.3-3.14a89.47,89.47,0,0,1-10.25-4.82c-2.61-1.51-5.17-3.08-7.73-4.67L92.49,232c-2.6-1.59-5.23-3.13-7.78-4.81s-5.28-3.65-7.84-5.6c-2.29-1.74-4.62-3.43-6.82-5.28s-4.19-3.65-6.19-5.57-4-4-5.93-6.19S54,200,52.08,197.7s-3.81-4.56-5.7-6.87c-2.08-2.53-4.22-5-6.25-7.59A94.44,94.44,0,0,1,34,174.66c-.56-1-1.1-1.95-1.57-3A28.82,28.82,0,0,1,31,168c-.64-2.51-1.11-5.06-1.68-7.58-.33-1.48-.71-3-1.17-4.41a15.19,15.19,0,0,0-.65-1.82,13.38,13.38,0,0,0-1.06-1.83,5.77,5.77,0,0,1-.36-.7.2.2,0,0,0-.19-.13.23.23,0,0,0-.23.19Zm.82.7,0,0,0,0Zm81.1,88.85.34.19-.34-.19Zm44.06,15.9.32.09-.32-.09Zm88.05-1.43.23-.06h0l-.27.07Z"/><path class="cls-17" d="M320.46,185.87a5.65,5.65,0,0,0-2.5.94l-.49.39a9.34,9.34,0,0,0-.92,1,9.63,9.63,0,0,0-.76.93c-.33.39-.65.79-1,1.19l-3.23,4c-1,1.24-1.92,2.54-2.85,3.83s-2,2.78-3,4.2c-2,3-3.94,6-6.12,8.82-1,1.34-2.13,2.63-3.24,3.91-1.23,1.43-2.45,2.87-3.69,4.3-1,1.13-2,2.24-3,3.32-2.44,2.48-5.05,4.8-7.65,7.12-1.31,1.17-2.64,2.34-4,3.46s-2.71,2.2-4.07,3.28c-1.2,1-2.45,1.85-3.69,2.76s-2.59,1.91-3.89,2.84c-2.43,1.73-4.9,3.42-7.46,5-1.35.79-2.7,1.57-4.07,2.33-1.57.88-3.2,1.68-4.82,2.48s-3.28,1.55-4.93,2.29-3.18,1.41-4.78,2.09-3.35,1.35-5,2c-.71.28-1.43.55-2.15.81l-1.16.44a2.78,2.78,0,0,0-1.11.74.48.48,0,0,0,0,.59,1.88,1.88,0,0,0,1.07.66,5.21,5.21,0,0,0,1.41.24,13.53,13.53,0,0,0,2.77-.12,52.63,52.63,0,0,0,5.91-1.36c1.67-.47,3.33-1.06,5-1.65s3.39-1.29,5.06-2,3.31-1.45,4.92-2.24,3.08-1.64,4.6-2.51c3.29-1.87,6.38-4.1,9.5-6.24,1.59-1.08,3.17-2.16,4.73-3.27s2.93-2.22,4.37-3.36c2.7-2.15,5.26-4.47,7.84-6.76,1.38-1.23,2.77-2.46,4.1-3.75q2.25-2.2,4.35-4.56,1.88-2.12,3.73-4.25c1.12-1.29,2.25-2.59,3.34-3.91,2.26-2.76,4.15-5.79,6.13-8.75s3.84-5.56,5.86-8.25c1.1-1.47,2.27-2.87,3.37-4.32.63-.83,1.27-1.65,1.89-2.48.27-.35.54-.71.78-1.09a11.19,11.19,0,0,0,.64-1.12c.05-.12.1-.24.16-.36a4.41,4.41,0,0,0,.2-.71l0-.12a2.12,2.12,0,0,0,.13-1,2,2,0,0,0-.42-1,2,2,0,0,0-1.56-.77,1.46,1.46,0,0,0-.29,0Z"/></g></g></svg>