<?xml version="1.0" encoding="utf-8"?>
<svg id="master-artboard" viewBox="0 0 222 700" version="1.1" xmlns="http://www.w3.org/2000/svg" x="0px" y="0px" style="enable-background:new 0 0 1400 980;" width="222px" height="700px"><defs><style id="ee-google-fonts">@import url(https://fonts.googleapis.com/css?family=Anton:400|Roboto+Slab:100,300,400,700);</style><path id="text-path-0" d="M 778.8464965820312 213.4612274169922 A 100 18 0 0 1 988.3533935546875 213.4612274169922 A 100 18 0 0 1 778.8464965820312 213.4612274169922 Z" style="fill: none; stroke: red; stroke-width: 2;"/><path id="text-path-1" d="M 664.5464477539062 37.96122741699219 A 100 19 0 0 1 876.5812377929688 37.96122741699219 A 100 19 0 0 1 664.5464477539062 37.96122741699219" style="fill: none; stroke: red; stroke-width: 2;"/><path id="text-path-2" d="M 765.3650512695312 211.70851135253906 A 100 17 0 0 1 991.5017700195312 211.70851135253906 A 100 17 0 0 1 765.3650512695312 211.70851135253906" style="fill: none; stroke: red; stroke-width: 2;"/><path id="path-1" d="M 765.3650512695312 211.70851135253906 A 100 17 0 0 1 991.5017700195312 211.70851135253906 A 100 17 0 0 1 765.3650512695312 211.70851135253906" style="fill: none; stroke: red; stroke-width: 2;"/></defs><rect id="ee-background" x="0" y="0" width="222" height="700" style="fill: white; fill-opacity: 0; pointer-events: none;"/>


<g transform="matrix(0.692149519920349, -5.600493864221789e-7, 4.125948578348469e-7, -0.4851642847061157, -0.07340601634325594, 701.637451171875)"><title>obstacle</title><g id="Layer_2" data-name="Layer 2"><g id="obstacle"><path d="M 14.81 117.650002 H 304.81 V 1442.820045 H 14.81 V 117.650002 Z" class="cls-1" style="fill: rgb(98, 201, 76);"/><path d="M 194.809998 117.650002 H 263.809998 V 1442.820045 H 194.809998 V 117.650002 Z" class="cls-2" style="fill: rgb(54, 155, 30);"/><path d="M 14.81 117.650002 H 80.81 V 1434.070045 H 14.81 V 117.650002 Z" class="cls-3" style="fill: rgb(150, 226, 131);"/><path d="M 30.809999 117.650002 H 47.809999 V 1434.070045 H 30.809999 V 117.650002 Z" class="cls-4" style="fill: rgb(208, 252, 195);"/><path d="M 15.64 1.82 H 304.98 A 12.83 12.83 0 0 1 317.81 14.65 V 100.99 A 12.83 12.83 0 0 1 304.98 113.82 H 15.64 A 12.83 12.83 0 0 1 2.81 100.99 V 14.65 A 12.83 12.83 0 0 1 15.64 1.82 Z" class="cls-1" style="fill: rgb(98, 201, 76);"/><path d="M 203.809998 2.82 H 272.809998 V 113.82 H 203.809998 V 2.82 Z" class="cls-2" style="fill: rgb(54, 155, 30);"/><path class="cls-3" d="M93.81,114.82h-81a10,10,0,0,1-10-10V9.44A6.62,6.62,0,0,1,9.44,2.82H87.19a6.62,6.62,0,0,1,6.62,6.62Z" style="fill: rgb(150, 226, 131);"/><path d="M 17.809999 2.82 H 36.809999 V 111.82 H 17.809999 V 2.82 Z" class="cls-4" style="fill: rgb(208, 252, 195);"/><path d="M 7.81 101.82 H 312.81 A 5 5 0 0 1 317.81 106.82 V 106.82 A 5 5 0 0 1 312.81 111.82 H 7.81 A 5 5 0 0 1 2.81 106.82 V 106.82 A 5 5 0 0 1 7.81 101.82 Z" class="cls-2" style="fill: rgb(54, 155, 30);"/><path d="M301.88,117.82v1319h-283v-1319h283m6-6h-295v1331h295v-1331Z"/><path d="M305.5,6a9.26,9.26,0,0,1,9.25,9.25v85.32a9.26,9.26,0,0,1-9.25,9.25H15.25A9.26,9.26,0,0,1,6,100.57V15.25A9.26,9.26,0,0,1,15.25,6H305.5m0-6H15.25A15.25,15.25,0,0,0,0,15.25v85.32a15.25,15.25,0,0,0,15.25,15.25H305.5a15.25,15.25,0,0,0,15.25-15.25V15.25A15.25,15.25,0,0,0,305.5,0Z"/></g></g></g></svg>