<svg xmlns="http://www.w3.org/2000/svg" viewBox="0 0 320.75 1442.82"><defs><style>.cls-1{fill:#62c94c;}.cls-2{fill:#369b1e;}.cls-3{fill:#96e283;}.cls-4{fill:#d0fcc3;}</style></defs><title>obstacle</title><g id="Layer_2" data-name="Layer 2"><g id="obstacle"><rect class="cls-1" x="14.81" y="117.65" width="290" height="1325.17"/><rect class="cls-2" x="194.81" y="117.65" width="69" height="1325.17"/><rect class="cls-3" x="14.81" y="117.65" width="66" height="1316.42"/><rect class="cls-4" x="30.81" y="117.65" width="17" height="1316.42"/><rect class="cls-1" x="2.81" y="1.82" width="315" height="112" rx="12.83" ry="12.83"/><rect class="cls-2" x="203.81" y="2.82" width="69" height="111"/><path class="cls-3" d="M93.81,114.82h-81a10,10,0,0,1-10-10V9.44A6.62,6.62,0,0,1,9.44,2.82H87.19a6.62,6.62,0,0,1,6.62,6.62Z"/><rect class="cls-4" x="17.81" y="2.82" width="19" height="109"/><rect class="cls-2" x="2.81" y="101.82" width="315" height="10" rx="5" ry="5"/><path d="M301.88,117.82v1319h-283v-1319h283m6-6h-295v1331h295v-1331Z"/><path d="M305.5,6a9.26,9.26,0,0,1,9.25,9.25v85.32a9.26,9.26,0,0,1-9.25,9.25H15.25A9.26,9.26,0,0,1,6,100.57V15.25A9.26,9.26,0,0,1,15.25,6H305.5m0-6H15.25A15.25,15.25,0,0,0,0,15.25v85.32a15.25,15.25,0,0,0,15.25,15.25H305.5a15.25,15.25,0,0,0,15.25-15.25V15.25A15.25,15.25,0,0,0,305.5,0Z"/></g></g></svg>