<svg xmlns="http://www.w3.org/2000/svg" viewBox="0 0 108.14 100.45"><defs><style>.cls-1{fill:#9683ff;opacity:1;}.cls-2{fill:#6f61bd;}.cls-2,.cls-3,.cls-4{opacity:1;}.cls-3{fill:#acacff;}.cls-4{fill:#091212;}</style></defs><title>wing</title><g id="Layer_2" data-name="Layer 2"><g id="wing"><path class="cls-1" d="M42,4a26,26,0,0,0-2.62.44,23.43,23.43,0,0,0-3.57,1,27.74,27.74,0,0,0-5.93,3.29,10.9,10.9,0,0,0-1.15,1l-.51.5A8.31,8.31,0,0,0,27,11.68a9.9,9.9,0,0,0-1.15,2.09A23.16,23.16,0,0,0,25,16.83a2.21,2.21,0,0,0,0,1c-.92.92-1.8,1.86-2.67,2.82-1.7,1.88-3.36,3.81-5,5.73a69,69,0,0,0-5.1,6.47C10.73,35,9.37,37.12,8,39.25a30.83,30.83,0,0,0-2.18,3.67,19.36,19.36,0,0,0-1.17,3.72,8.46,8.46,0,0,0-.26,1.42,6.68,6.68,0,0,0,.44,3A6.79,6.79,0,0,0,9,54.81a12.12,12.12,0,0,0,1.55.49,26.73,26.73,0,0,0,2.62.59,29.18,29.18,0,0,0,3.73.32,29.58,29.58,0,0,0,3-.06,76.39,76.39,0,0,0-3.58,7.12,55.59,55.59,0,0,0-2.58,7.09,28.05,28.05,0,0,0-.94,4.23,31.62,31.62,0,0,0,0,5.15c.06,1.33.22,2.66.3,4a20.84,20.84,0,0,0,.46,3.33,15.35,15.35,0,0,0,.69,2.31c.16.43.34.87.5,1.3a21.26,21.26,0,0,0,1,2.25,14,14,0,0,0,1.14,1.93,8.77,8.77,0,0,0,1.59,1.63A7.37,7.37,0,0,0,22,97.86a8.86,8.86,0,0,0,2.86-.08,37.39,37.39,0,0,0,4.3-1c1.19-.34,2.38-.71,3.54-1.14,1.41-.52,2.8-1.07,4.24-1.49,1.18-.32,2.37-.66,3.53-1.07s2.24-.93,3.35-1.45c2.16-1,4.28-2.09,6.36-3.28,1.33-.76,2.64-1.57,3.9-2.45s2.26-1.63,3.38-2.44c2-1.45,4.12-2.77,6.23-4.07s4.31-2.72,6.42-4.14c1.08-.73,2.16-1.44,3.2-2.21s2.1-1.67,3.12-2.54c2-1.7,3.86-3.56,5.71-5.41,2-2,4.14-4,6-6.18,1.75-2,3.4-4.14,5-6.31a71.21,71.21,0,0,0,4.65-7.36,52.9,52.9,0,0,0,2.83-7.09c.4-1.1.84-2.19,1.27-3.28a32.8,32.8,0,0,0,1.31-4,9.59,9.59,0,0,0,0-4.67,28.36,28.36,0,0,0-1.31-4.23,17.34,17.34,0,0,0-1.24-2.33,7.77,7.77,0,0,0-1-1.34,21.1,21.1,0,0,0-2-1.89,11.71,11.71,0,0,0-1.64-1.05c-1.16-.67-2.3-1.38-3.44-2.07a29.64,29.64,0,0,0-4.29-2.15l-4-1.57C82.92,9,81.66,8.43,80.35,8a31.89,31.89,0,0,0-9.06-1.84c-2.58-.18-5.17-.22-7.76-.39S58.51,5,56,4.64s-5.09-.73-7.64-.87c-.54,0-1.09,0-1.63,0A44.39,44.39,0,0,0,42,4ZM10.79,48.19h0v0c.22.12.44.22.67.32l-.65-.28Zm11.52.61-.12.12h0l.15-.13Z"/><path class="cls-2" d="M19.53,20.07a10.7,10.7,0,0,1-1.25.54,11.5,11.5,0,0,0-1.62,1,14,14,0,0,0-2.48,2.2,36,36,0,0,0-3.86,5.08C9.63,29.94,9,31.05,8.4,32.19A23.44,23.44,0,0,0,7.22,35a25,25,0,0,0-.9,3.29A17.24,17.24,0,0,0,6,41.42C6,42,6,42.66,6,43.27a4.29,4.29,0,0,0,.07.5,3.57,3.57,0,0,0-1.13,0,3.52,3.52,0,0,0-3,3,3.76,3.76,0,0,0,.1,1.67c.14.51.27,1,.44,1.51.33,1,.69,1.94,1.09,2.88a11.46,11.46,0,0,0,.66,1.31,14.34,14.34,0,0,0,1.39,2.12,8,8,0,0,0,4.71,2.61,8.53,8.53,0,0,0,1.89.08,9.21,9.21,0,0,0,1.48-.18,21.59,21.59,0,0,0,3.51-1,16,16,0,0,0,4-2.24l.35-.29.81-.23c.36-.1.71-.22,1.06-.35a4.93,4.93,0,0,0,1.79-1,3.29,3.29,0,0,0,1-3.83c.33-.47.65-1,.94-1.46a5.6,5.6,0,0,0,.44-.84c.09-.28.17-.56.24-.85v-.82a2.6,2.6,0,0,0-.53-1.23,2.34,2.34,0,0,0-1.25-.91,2.54,2.54,0,0,0-1.28-.17,6,6,0,0,0-1.17.26c-.57.16-1.15.35-1.72.52s-1.32.35-2,.55l-1.36.43a11.52,11.52,0,0,1-2.1.28,11,11,0,0,1-1.79-.25A12.58,12.58,0,0,1,13,44.66l-.36-.27a8.27,8.27,0,0,1-.51-.66,9.79,9.79,0,0,1-.42-1,15.53,15.53,0,0,1-.25-2.64c0-.59.06-1.18.13-1.78s.19-1.12.31-1.67A22.24,22.24,0,0,1,12.87,34c.42-1,.88-1.89,1.37-2.81,1-1.75,2.15-3.43,3.26-5.13a29.82,29.82,0,0,0,1.59-2.67A14.1,14.1,0,0,0,19.72,22c.18-.43.25-.9.45-1.32a.51.51,0,0,0-.45-.68.49.49,0,0,0-.19.05Z"/><path class="cls-2" d="M27.88,44.17a9.14,9.14,0,0,0-1.05.91,29,29,0,0,0-2,2.29A48.84,48.84,0,0,0,21.56,52a50.74,50.74,0,0,0-2.79,5.06c-.42.89-.81,1.79-1.18,2.71a24.46,24.46,0,0,0-.83,2.68,32.29,32.29,0,0,0-1.12,5.7,28.69,28.69,0,0,0-.13,3.34,19.77,19.77,0,0,0,.19,2.78,17.67,17.67,0,0,0,.77,3.15,19.19,19.19,0,0,0,1.21,2.7,17.47,17.47,0,0,0,4.16,5.3,12.55,12.55,0,0,0,2.73,1.72,15.31,15.31,0,0,0,2.59,1,32.86,32.86,0,0,0,6.14,1.13c.64,0,1.29,0,1.93,0,.46,0,.92,0,1.38,0,.9-.06,1.8-.13,2.69-.25a44.83,44.83,0,0,0,6.18-1.37,51.92,51.92,0,0,0,5.46-1.92c1.73-.73,3.41-1.55,5.09-2.39,3.64-1.85,7.17-3.94,10.63-6.1C73.16,73.19,79,68.15,85,63.44l2.79-2.22c.78-.63,1.57-1.26,2.3-1.94,1-.93,2-1.91,2.91-2.9a12,12,0,0,0,.91-1l.59-.75a11,11,0,0,0,1-1.7,2,2,0,0,0-.29-2,2,2,0,0,0-2.37-.6,13.4,13.4,0,0,0-1.58.86l-.67.48c-.4.29-.78.6-1.17.91-.68.54-1.38,1-2.07,1.57-1.51,1.13-3,2.29-4.52,3.41-3.07,2.29-6.14,4.57-9.18,6.9-2.52,1.93-5,3.87-7.62,5.7s-5,3.37-7.6,4.94C56,76.52,53.52,77.83,51,79a53.6,53.6,0,0,1-8,3.06A38,38,0,0,1,39,83a38.75,38.75,0,0,1-4.44.4,26.3,26.3,0,0,1-5.07-.68,16.94,16.94,0,0,1-2.93-1.1,12.21,12.21,0,0,1-1.79-1.33,16.68,16.68,0,0,1-2-2.47c-.37-.67-.72-1.35-1-2.05a14.59,14.59,0,0,1-.65-1.82,24.81,24.81,0,0,1-.53-5.57c0-1.24.05-2.48.18-3.71a29,29,0,0,1,.65-3.59A37.7,37.7,0,0,1,23,56.71c.64-1.46,1.37-2.88,2.11-4.29s1.48-2.85,2.23-4.27c.39-.73.76-1.46,1.12-2.2.18-.38.33-.77.47-1.16s.35-.76,0-1a.51.51,0,0,0-.26-.07,1.56,1.56,0,0,0-.8.42ZM58.94,74.78,58.5,75l.44-.26Z"/><path class="cls-2" d="M74,70.2c-2,1.09-4.1,2-6.11,3.07s-4.31,2.34-6.49,3.46c-4.28,2.2-8.52,4.51-12.86,6.59a75.91,75.91,0,0,1-10.18,4.09c-1.38.35-2.76.64-4.16.87a30.49,30.49,0,0,1-3.3.34,3.21,3.21,0,0,0-1.69-.29c-.5,0-1,.06-1.49.07l-1.33-.06.21-.38a4,4,0,0,0,.26-2,7.24,7.24,0,0,0-.34-1.39,6.36,6.36,0,0,0-.65-1.13,3.74,3.74,0,0,0-.41-.55,3.49,3.49,0,0,0-1.08-1.25,4.59,4.59,0,0,0-2.18-.91,4.35,4.35,0,0,0-3,.83Q19,80.26,18.93,79c-.12-1.79-.14-3.61-.41-5.39a3.18,3.18,0,0,0-5.7-1.48A5.72,5.72,0,0,0,12,74.8l-.24,1.76c-.14,1-.31,2.08-.45,3.13a22.51,22.51,0,0,0-.17,4,14.85,14.85,0,0,0,.76,4,7.88,7.88,0,0,0,.59,1.48,17.21,17.21,0,0,0,1,1.59A7.69,7.69,0,0,0,15,92.32a3.58,3.58,0,0,0,3,2.82c.68.11,1.35.32,2,.49a16.26,16.26,0,0,0,2.31.45,19.57,19.57,0,0,0,2,.11,14.43,14.43,0,0,0,1.86,0,9.72,9.72,0,0,0,1.43-.08A3.42,3.42,0,0,0,29.69,95c.33,0,.66,0,1-.07a26.08,26.08,0,0,0,3.53-.63,35.38,35.38,0,0,0,3.92-1.18c1.12-.42,2.22-.86,3.31-1.35A132.14,132.14,0,0,0,54.22,85,123.27,123.27,0,0,0,64.6,78.26c1.66-1.21,3.31-2.43,4.93-3.68s3.19-2.52,4.87-3.66l0,0a.42.42,0,0,0,.17-.52.44.44,0,0,0-.39-.26.29.29,0,0,0-.16,0Z"/><path class="cls-2" d="M26.06,83.28a4.52,4.52,0,0,0-2.25,1l-.13.11c-.67,0-1.33,0-2,0A4.34,4.34,0,0,0,19,85,1.51,1.51,0,0,0,18.76,87a1.19,1.19,0,0,0,.28.27h0l0,0,.16.09c1,.58,1.94,1.09,2.94,1.59a4.65,4.65,0,0,0,2.73,3.14,2.85,2.85,0,0,0,.31.12,4.26,4.26,0,0,0,2.47,1.23,4.05,4.05,0,0,0,1.1,0h0a4.56,4.56,0,0,0,3.93-5.08s0-.08,0-.11a.59.59,0,0,0,0-.13,3.63,3.63,0,0,0-1.41-3.32,7.21,7.21,0,0,0-2.06-1.24A6.47,6.47,0,0,0,27,83.16a3.39,3.39,0,0,0-1,.12Zm-5.2,4Z"/><path class="cls-3" d="M50.73,2.79a29.66,29.66,0,0,0-3.88.28A73.74,73.74,0,0,0,38.8,4.75a41.56,41.56,0,0,0-8.22,3.09,44.81,44.81,0,0,0-7.38,4.9c-1,.8-1.9,1.7-2.81,2.58a32.32,32.32,0,0,0-3.1,3.41,28.51,28.51,0,0,0-2,3,9.24,9.24,0,0,0-.92,1.93,6.29,6.29,0,0,0-.23,1.13,2.74,2.74,0,0,0,.15,1,1.07,1.07,0,0,0,.85.64A3.47,3.47,0,0,0,17.25,26a10.53,10.53,0,0,0,1.29-.78,6.78,6.78,0,0,0,.81-.6c1.1-.89,2.14-1.85,3.24-2.75a68.81,68.81,0,0,1,6.69-4.83c1.65-.94,3.32-1.83,5-2.6a48.24,48.24,0,0,1,6-2.21A33.8,33.8,0,0,1,44,11.43a33.34,33.34,0,0,1,4.23-.34c1.89,0,3.78.15,5.67.3S58,11.75,60,12s4.27.68,6.39,1.09,4,.79,5.94,1.28c2.92.78,5.82,1.61,8.69,2.53a56.59,56.59,0,0,1,8.73,3.45,28.08,28.08,0,0,1,4.35,3.24c.65.65,1.28,1.3,1.9,2a22.28,22.28,0,0,1,2.32,3l.4.65h0l.56.91a6,6,0,0,1,.5.51,5.17,5.17,0,0,0,1.15,1,3.09,3.09,0,0,0,3.72-.06,6.16,6.16,0,0,0,1-1,6.86,6.86,0,0,0,.75-1.45,5.58,5.58,0,0,0,.28-2.5,9.29,9.29,0,0,0-.43-1.86,6.5,6.5,0,0,0-.69-1.43,19.67,19.67,0,0,0-1.09-1.75A29.39,29.39,0,0,0,101,17.9c-1-1-2.06-2-3.18-2.85A27.7,27.7,0,0,0,94.74,13a36.1,36.1,0,0,0-4.24-2.18c-1.23-.53-2.49-1-3.76-1.46-2.6-.91-5.25-1.7-7.9-2.44s-5.46-1.48-8.23-2c-2.57-.5-5.15-.95-7.75-1.32S57.93,3,55.45,2.86c-1.11,0-2.21-.08-3.31-.08Zm47,24.88L98,28l-.19-.32Z"/><path class="cls-4" d="M46.23,0a38.26,38.26,0,0,0-5.44.54c-.9.14-1.81.3-2.7.5A14.45,14.45,0,0,0,35,2a16.65,16.65,0,0,0-1.75,1c-.35.22-.7.44-1,.69-.75.53-1.46,1.08-2.18,1.65-1.41,1.11-2.81,2.24-4.16,3.44a115.22,115.22,0,0,0-8.25,8.14c-1.26,1.37-2.44,2.82-3.61,4.26S11.7,24,10.61,25.48s-2.07,3-3,4.48-1.95,3-2.85,4.62A46.39,46.39,0,0,0,2,39.89,28.36,28.36,0,0,0,.34,45.58,15.82,15.82,0,0,0,.22,51.4a11.61,11.61,0,0,0,.9,2.88A14.19,14.19,0,0,0,2.81,57a21.05,21.05,0,0,0,1.78,1.88A11.82,11.82,0,0,0,6,60.07c.22.15.46.29.69.42a11.8,11.8,0,0,0,1.41.74,12.2,12.2,0,0,0,2.59.68,21.19,21.19,0,0,0,4.21.2q-.55,1.08-1,2.19A50.22,50.22,0,0,0,12,69.54a55.44,55.44,0,0,0-1.4,5.54c-.36,1.73-.61,3.48-.8,5.23a34.78,34.78,0,0,0-.05,6,25.66,25.66,0,0,0,1.08,5.49,11.67,11.67,0,0,0,1.28,2.75,9.37,9.37,0,0,0,.68,1,16.57,16.57,0,0,0,1.31,1.34,12.72,12.72,0,0,0,2.57,1.79,11.83,11.83,0,0,0,2.48,1.07,23.85,23.85,0,0,0,3,.67,19.71,19.71,0,0,0,3.26.08,37.57,37.57,0,0,0,5.49-.66c1.74-.31,3.45-.71,5.15-1.17,1.93-.53,3.86-1.07,5.75-1.74,1.62-.58,3.2-1.24,4.77-1.93a93.83,93.83,0,0,0,9.33-4.73c3.27-1.88,6.41-4,9.51-6.14,1.46-1,2.94-2,4.39-3s2.87-2.14,4.27-3.25,2.77-2.19,4.12-3.33,2.74-2.37,4-3.64c2.79-2.73,5.39-5.64,8-8.56A100.88,100.88,0,0,0,97.14,54c1.08-1.53,2.06-3.12,3-4.73s2-3.43,2.79-5.22a62.52,62.52,0,0,0,4.17-10,23.72,23.72,0,0,0,1-5.72,13.37,13.37,0,0,0-.31-3.34,16.65,16.65,0,0,0-1.08-3.14,23.73,23.73,0,0,0-1.61-2.92,19.39,19.39,0,0,0-1.61-2.2,23.55,23.55,0,0,0-4.64-4A27.42,27.42,0,0,0,96,11c-.79-.42-1.58-.84-2.39-1.21a46.25,46.25,0,0,0-5.12-2c-3.35-1.08-6.74-2-10.15-2.86.27.06.53.14.79.21-3.6-1-7.2-1.94-10.84-2.78A88.26,88.26,0,0,0,57.49.55,96.61,96.61,0,0,0,47.72,0L46.23,0Zm1.4,6.27A92.08,92.08,0,0,1,57.73,7a94.24,94.24,0,0,1,10.81,2c1.94.46,3.87,1,5.81,1.47,3.31.87,6.64,1.72,9.91,2.77,1.79.57,3.56,1.16,5.3,1.9,1.46.62,2.88,1.32,4.27,2.08a28.17,28.17,0,0,1,4,2.82,20.24,20.24,0,0,1,2.45,3.16,18.27,18.27,0,0,1,1.31,3A12.39,12.39,0,0,1,101.8,28a19.87,19.87,0,0,1-.58,3.6,31.32,31.32,0,0,1-1,3.15c-.49,1.23-1,2.43-1.59,3.62-1,2.16-2,4.33-3.17,6.43-.84,1.45-1.69,2.89-2.65,4.27s-2.1,2.94-3.25,4.33C87.2,56.22,84.74,59,82.29,61.7q-2,2.22-4.05,4.37a86,86,0,0,1-7.66,6.75c-1.41,1.12-2.81,2.23-4.27,3.28s-2.94,2-4.41,3.07C59.31,81,56.69,82.77,54,84.42a91.61,91.61,0,0,1-9,4.74,85,85,0,0,1-9.66,3.62c-1.3.4-2.61.78-3.91,1.15a35.65,35.65,0,0,1-3.8.8,34.61,34.61,0,0,1-3.92.36,16,16,0,0,1-2.84-.36,12.29,12.29,0,0,1-1.95-.8,12.67,12.67,0,0,1-1.73-1.28,8.22,8.22,0,0,1-.87-1.08,10.78,10.78,0,0,1-.58-1.24c-.17-.45-.31-.9-.45-1.36a26.82,26.82,0,0,1-.63-6A46.08,46.08,0,0,1,16.13,72.6a51.35,51.35,0,0,1,1.67-5.14A40.74,40.74,0,0,1,20,62.74c.87-1.5,1.79-3,2.7-4.46s1.93-3.13,3-4.64c2.12-3,4.31-6.07,6.69-8.91.74-.89,1.52-1.76,2.2-2.7a14.39,14.39,0,0,0,1.07-1.71c.15-.29.51-1.14,0-1.33a1.83,1.83,0,0,0-1.24.09,6.77,6.77,0,0,0-1.24.52,19.8,19.8,0,0,0-2.56,1.68,40.77,40.77,0,0,0-4.4,4.11,54.72,54.72,0,0,0-3.72,4.47Q20.94,52,19.5,54.3c-.34.54-.67,1.09-1,1.64l-.15,0a8.16,8.16,0,0,0-1.91.08c-.47,0-.93.08-1.4.09a21,21,0,0,1-4.19-.33c-.32-.11-.62-.24-.93-.38a11.86,11.86,0,0,1-1.39-1.06,14.71,14.71,0,0,1-1.58-1.94,11.09,11.09,0,0,1-.64-1.5,13.85,13.85,0,0,1-.24-2,20.88,20.88,0,0,1,.6-3.92,32.26,32.26,0,0,1,2.7-6.14A96.27,96.27,0,0,1,15,30.11c2.14-3,4.49-5.86,6.91-8.65.81-.92,1.65-1.83,2.49-2.72,1.94-2,4-3.88,6.06-5.69,1.11-1,2.26-1.9,3.42-2.82,1-.77,2-1.53,3-2.2a9.48,9.48,0,0,1,1.57-.69,42.19,42.19,0,0,1,9.16-1Z"/></g></g></svg>